# Blender 3.6.9
# www.blender.org
o Circle
v 0.000000 0.000000 -1.000000
v -0.642788 0.000000 -0.766044
v -0.984808 0.000000 -0.173648
v -0.866025 0.000000 0.500000
v -0.342020 0.000000 0.939693
v 0.342020 0.000000 0.939693
v 0.866025 0.000000 0.500000
v 0.984808 0.000000 -0.173648
v 0.642788 0.000000 -0.766044
v -0.000000 1.138633 0.000000
vn -0.0000 -1.0000 -0.0000
vn -0.7595 0.6365 0.1339
vn 0.7595 0.6365 0.1339
vn -0.4958 0.6365 0.5908
vn -0.2638 0.6365 -0.7248
vn 0.6679 0.6365 -0.3856
vn -0.0000 0.6365 0.7713
vn -0.6679 0.6365 -0.3856
vn 0.2638 0.6365 -0.7248
vn 0.4958 0.6365 0.5908
vt 0.000000 0.000000
s 0
f 2/1/1 1/1/1 9/1/1 8/1/1 7/1/1 6/1/1 5/1/1 4/1/1 3/1/1
f 3/1/2 4/1/2 10/1/2
f 7/1/3 8/1/3 10/1/3
f 4/1/4 5/1/4 10/1/4
f 1/1/5 2/1/5 10/1/5
f 8/1/6 9/1/6 10/1/6
f 5/1/7 6/1/7 10/1/7
f 2/1/8 3/1/8 10/1/8
f 9/1/9 1/1/9 10/1/9
f 6/1/10 7/1/10 10/1/10
