# Blender 3.6.9
# www.blender.org
o rotate
v 1.014142 -0.014142 -0.000000
v 0.985858 -0.014142 0.000000
v 0.985858 0.014142 0.000000
v 1.014142 0.014142 -0.000000
v 0.994656 -0.014142 -0.197849
v 0.966915 -0.014142 -0.192331
v 0.966915 0.014142 -0.192331
v 0.994656 0.014142 -0.197849
v 0.936945 -0.014142 -0.388095
v 0.910814 -0.014142 -0.377272
v 0.910814 0.014142 -0.377272
v 0.936945 0.014142 -0.388095
v 0.843228 -0.014142 -0.563427
v 0.819711 -0.014142 -0.547713
v 0.819711 0.014142 -0.547713
v 0.843228 0.014142 -0.563427
v 0.717107 -0.014142 -0.717107
v 0.697107 -0.014142 -0.697107
v 0.697107 0.014142 -0.697107
v 0.717107 0.014142 -0.717107
v 0.563427 -0.014142 -0.843228
v 0.547713 -0.014142 -0.819711
v 0.547713 0.014142 -0.819711
v 0.563427 0.014142 -0.843228
v 0.388095 -0.014142 -0.936945
v 0.377271 -0.014142 -0.910814
v 0.377271 0.014142 -0.910814
v 0.388095 0.014142 -0.936945
v 0.197849 -0.014142 -0.994656
v 0.192331 -0.014142 -0.966915
v 0.192331 0.014142 -0.966915
v 0.197849 0.014142 -0.994656
v -0.000000 -0.014142 -1.014142
v -0.000000 -0.014142 -0.985858
v -0.000000 0.014142 -0.985858
v -0.000000 0.014142 -1.014142
v -0.197849 -0.014142 -0.994656
v -0.192331 -0.014142 -0.966915
v -0.192331 0.014142 -0.966915
v -0.197849 0.014142 -0.994656
v -0.388095 -0.014142 -0.936945
v -0.377272 -0.014142 -0.910814
v -0.377272 0.014142 -0.910814
v -0.388095 0.014142 -0.936945
v -0.563427 -0.014142 -0.843228
v -0.547713 -0.014142 -0.819711
v -0.547713 0.014142 -0.819711
v -0.563427 0.014142 -0.843228
v -0.717107 -0.014142 -0.717107
v -0.697107 -0.014142 -0.697107
v -0.697107 0.014142 -0.697107
v -0.717107 0.014142 -0.717107
v -0.843228 -0.014142 -0.563427
v -0.819711 -0.014142 -0.547713
v -0.819711 0.014142 -0.547713
v -0.843228 0.014142 -0.563427
v -0.936945 -0.014142 -0.388095
v -0.910814 -0.014142 -0.377271
v -0.910814 0.014142 -0.377271
v -0.936945 0.014142 -0.388095
v -0.994656 -0.014142 -0.197849
v -0.966915 -0.014142 -0.192331
v -0.966915 0.014142 -0.192331
v -0.994656 0.014142 -0.197849
v -1.014142 -0.014142 0.000000
v -0.985858 -0.014142 0.000000
v -0.985858 0.014142 0.000000
v -1.014142 0.014142 0.000000
v -0.994656 -0.014142 0.197849
v -0.966915 -0.014142 0.192331
v -0.966915 0.014142 0.192331
v -0.994656 0.014142 0.197849
v -0.936945 -0.014142 0.388095
v -0.910814 -0.014142 0.377271
v -0.910814 0.014142 0.377271
v -0.936945 0.014142 0.388095
v -0.843228 -0.014142 0.563427
v -0.819711 -0.014142 0.547713
v -0.819711 0.014142 0.547713
v -0.843228 0.014142 0.563427
v -0.717107 -0.014142 0.717107
v -0.697107 -0.014142 0.697107
v -0.697107 0.014142 0.697107
v -0.717107 0.014142 0.717107
v -0.563427 -0.014142 0.843229
v -0.547713 -0.014142 0.819711
v -0.547713 0.014142 0.819711
v -0.563427 0.014142 0.843229
v -0.388095 -0.014142 0.936945
v -0.377271 -0.014142 0.910814
v -0.377271 0.014142 0.910814
v -0.388095 0.014142 0.936945
v -0.197849 -0.014142 0.994656
v -0.192331 -0.014142 0.966915
v -0.192331 0.014142 0.966915
v -0.197849 0.014142 0.994656
v 0.000000 -0.014142 1.014142
v 0.000000 -0.014142 0.985858
v 0.000000 0.014142 0.985858
v 0.000000 0.014142 1.014142
v 0.197849 -0.014142 0.994656
v 0.192331 -0.014142 0.966915
v 0.192331 0.014142 0.966915
v 0.197849 0.014142 0.994656
v 0.388096 -0.014142 0.936945
v 0.377272 -0.014142 0.910814
v 0.377272 0.014142 0.910814
v 0.388096 0.014142 0.936945
v 0.563427 -0.014142 0.843228
v 0.547713 -0.014142 0.819711
v 0.547713 0.014142 0.819711
v 0.563427 0.014142 0.843228
v 0.717107 -0.014142 0.717107
v 0.697107 -0.014142 0.697107
v 0.697107 0.014142 0.697107
v 0.717107 0.014142 0.717107
v 0.843228 -0.014142 0.563427
v 0.819711 -0.014142 0.547713
v 0.819711 0.014142 0.547713
v 0.843228 0.014142 0.563427
v 0.936945 -0.014142 0.388095
v 0.910814 -0.014142 0.377271
v 0.910814 0.014142 0.377271
v 0.936945 0.014142 0.388095
v 0.994656 -0.014142 0.197849
v 0.966915 -0.014142 0.192331
v 0.966915 0.014142 0.192331
v 0.994656 0.014142 0.197849
vn 0.7279 -0.6857 -0.0000
vn -0.6836 -0.7298 -0.0000
vn -0.6705 -0.7298 0.1334
vn 0.7139 -0.6857 -0.1420
vn -0.6836 0.7298 -0.0000
vn -0.6705 0.7298 0.1334
vn 0.7279 0.6857 -0.0000
vn 0.7139 0.6857 -0.1420
vn -0.6316 -0.7298 0.2616
vn 0.6725 -0.6857 -0.2786
vn -0.6316 0.7298 0.2616
vn 0.6725 0.6857 -0.2786
vn -0.5684 -0.7298 0.3798
vn 0.6052 -0.6857 -0.4044
vn -0.5684 0.7298 0.3798
vn 0.6052 0.6857 -0.4044
vn -0.4834 -0.7298 0.4834
vn 0.5147 -0.6857 -0.5147
vn -0.4834 0.7298 0.4834
vn 0.5147 0.6857 -0.5147
vn -0.3798 -0.7298 0.5684
vn 0.4044 -0.6857 -0.6052
vn -0.3798 0.7298 0.5684
vn 0.4044 0.6857 -0.6052
vn -0.2616 -0.7298 0.6316
vn 0.2786 -0.6857 -0.6725
vn -0.2616 0.7298 0.6316
vn 0.2786 0.6857 -0.6725
vn -0.1334 -0.7298 0.6705
vn 0.1420 -0.6857 -0.7139
vn -0.1334 0.7298 0.6705
vn 0.1420 0.6857 -0.7139
vn -0.0000 -0.7298 0.6836
vn -0.0000 -0.6857 -0.7279
vn -0.0000 0.7298 0.6836
vn -0.0000 0.6857 -0.7279
vn 0.1334 -0.7298 0.6705
vn -0.1420 -0.6857 -0.7139
vn 0.1334 0.7298 0.6705
vn -0.1420 0.6857 -0.7139
vn 0.2616 -0.7298 0.6316
vn -0.2786 -0.6857 -0.6725
vn 0.2616 0.7298 0.6316
vn -0.2786 0.6857 -0.6725
vn 0.3798 -0.7298 0.5684
vn -0.4044 -0.6857 -0.6052
vn 0.3798 0.7298 0.5684
vn -0.4044 0.6857 -0.6052
vn 0.4834 -0.7298 0.4834
vn -0.5147 -0.6857 -0.5147
vn 0.4834 0.7298 0.4834
vn -0.5147 0.6857 -0.5147
vn 0.5684 -0.7298 0.3798
vn -0.6052 -0.6857 -0.4044
vn 0.5684 0.7298 0.3798
vn -0.6052 0.6857 -0.4044
vn 0.6316 -0.7298 0.2616
vn -0.6725 -0.6857 -0.2786
vn 0.6316 0.7298 0.2616
vn -0.6725 0.6857 -0.2786
vn 0.6705 -0.7298 0.1334
vn -0.7139 -0.6857 -0.1420
vn 0.6705 0.7298 0.1334
vn -0.7139 0.6857 -0.1420
vn 0.6836 -0.7298 -0.0000
vn -0.7279 -0.6857 -0.0000
vn 0.6836 0.7298 -0.0000
vn -0.7279 0.6857 -0.0000
vn 0.6705 -0.7298 -0.1334
vn -0.7139 -0.6857 0.1420
vn 0.6705 0.7298 -0.1334
vn -0.7139 0.6857 0.1420
vn 0.6316 -0.7298 -0.2616
vn -0.6725 -0.6857 0.2786
vn 0.6316 0.7298 -0.2616
vn -0.6725 0.6857 0.2786
vn 0.5684 -0.7298 -0.3798
vn -0.6052 -0.6857 0.4044
vn 0.5684 0.7298 -0.3798
vn -0.6052 0.6857 0.4044
vn 0.4834 -0.7298 -0.4834
vn -0.5147 -0.6857 0.5147
vn 0.4834 0.7298 -0.4834
vn -0.5147 0.6857 0.5147
vn 0.3798 -0.7298 -0.5684
vn -0.4044 -0.6857 0.6052
vn 0.3798 0.7298 -0.5684
vn -0.4044 0.6857 0.6052
vn 0.2616 -0.7298 -0.6316
vn -0.2786 -0.6857 0.6725
vn 0.2616 0.7298 -0.6316
vn -0.2786 0.6857 0.6725
vn 0.1334 -0.7298 -0.6705
vn -0.1420 -0.6857 0.7139
vn 0.1334 0.7298 -0.6705
vn -0.1420 0.6857 0.7139
vn -0.0000 -0.7298 -0.6836
vn -0.0000 -0.6857 0.7279
vn -0.0000 0.7298 -0.6836
vn -0.0000 0.6857 0.7279
vn -0.1334 -0.7298 -0.6705
vn 0.1420 -0.6857 0.7139
vn -0.1334 0.7298 -0.6705
vn 0.1420 0.6857 0.7139
vn -0.2616 -0.7298 -0.6316
vn 0.2786 -0.6857 0.6725
vn -0.2616 0.7298 -0.6316
vn 0.2786 0.6857 0.6725
vn -0.3798 -0.7298 -0.5684
vn 0.4044 -0.6857 0.6052
vn -0.3798 0.7298 -0.5684
vn 0.4044 0.6857 0.6052
vn -0.4834 -0.7298 -0.4834
vn 0.5147 -0.6857 0.5147
vn -0.4834 0.7298 -0.4834
vn 0.5147 0.6857 0.5147
vn -0.5684 -0.7298 -0.3798
vn 0.6052 -0.6857 0.4044
vn -0.5684 0.7298 -0.3798
vn 0.6052 0.6857 0.4044
vn -0.6316 -0.7298 -0.2616
vn 0.6725 -0.6857 0.2786
vn -0.6316 0.7298 -0.2616
vn 0.6725 0.6857 0.2786
vn -0.6705 -0.7298 -0.1334
vn 0.7139 -0.6857 0.1420
vn -0.6705 0.7298 -0.1334
vn 0.7139 0.6857 0.1420
vt 0.000000 0.000000
s 1
f 1/1/1 2/1/2 6/1/3 5/1/4
f 2/1/2 3/1/5 7/1/6 6/1/3
f 3/1/5 4/1/7 8/1/8 7/1/6
f 4/1/7 1/1/1 5/1/4 8/1/8
f 5/1/4 6/1/3 10/1/9 9/1/10
f 6/1/3 7/1/6 11/1/11 10/1/9
f 7/1/6 8/1/8 12/1/12 11/1/11
f 8/1/8 5/1/4 9/1/10 12/1/12
f 9/1/10 10/1/9 14/1/13 13/1/14
f 10/1/9 11/1/11 15/1/15 14/1/13
f 11/1/11 12/1/12 16/1/16 15/1/15
f 12/1/12 9/1/10 13/1/14 16/1/16
f 13/1/14 14/1/13 18/1/17 17/1/18
f 14/1/13 15/1/15 19/1/19 18/1/17
f 15/1/15 16/1/16 20/1/20 19/1/19
f 16/1/16 13/1/14 17/1/18 20/1/20
f 17/1/18 18/1/17 22/1/21 21/1/22
f 18/1/17 19/1/19 23/1/23 22/1/21
f 19/1/19 20/1/20 24/1/24 23/1/23
f 20/1/20 17/1/18 21/1/22 24/1/24
f 21/1/22 22/1/21 26/1/25 25/1/26
f 22/1/21 23/1/23 27/1/27 26/1/25
f 23/1/23 24/1/24 28/1/28 27/1/27
f 24/1/24 21/1/22 25/1/26 28/1/28
f 25/1/26 26/1/25 30/1/29 29/1/30
f 26/1/25 27/1/27 31/1/31 30/1/29
f 27/1/27 28/1/28 32/1/32 31/1/31
f 28/1/28 25/1/26 29/1/30 32/1/32
f 29/1/30 30/1/29 34/1/33 33/1/34
f 30/1/29 31/1/31 35/1/35 34/1/33
f 31/1/31 32/1/32 36/1/36 35/1/35
f 32/1/32 29/1/30 33/1/34 36/1/36
f 33/1/34 34/1/33 38/1/37 37/1/38
f 34/1/33 35/1/35 39/1/39 38/1/37
f 35/1/35 36/1/36 40/1/40 39/1/39
f 36/1/36 33/1/34 37/1/38 40/1/40
f 37/1/38 38/1/37 42/1/41 41/1/42
f 38/1/37 39/1/39 43/1/43 42/1/41
f 39/1/39 40/1/40 44/1/44 43/1/43
f 40/1/40 37/1/38 41/1/42 44/1/44
f 41/1/42 42/1/41 46/1/45 45/1/46
f 42/1/41 43/1/43 47/1/47 46/1/45
f 43/1/43 44/1/44 48/1/48 47/1/47
f 44/1/44 41/1/42 45/1/46 48/1/48
f 45/1/46 46/1/45 50/1/49 49/1/50
f 46/1/45 47/1/47 51/1/51 50/1/49
f 47/1/47 48/1/48 52/1/52 51/1/51
f 48/1/48 45/1/46 49/1/50 52/1/52
f 49/1/50 50/1/49 54/1/53 53/1/54
f 50/1/49 51/1/51 55/1/55 54/1/53
f 51/1/51 52/1/52 56/1/56 55/1/55
f 52/1/52 49/1/50 53/1/54 56/1/56
f 53/1/54 54/1/53 58/1/57 57/1/58
f 54/1/53 55/1/55 59/1/59 58/1/57
f 55/1/55 56/1/56 60/1/60 59/1/59
f 56/1/56 53/1/54 57/1/58 60/1/60
f 57/1/58 58/1/57 62/1/61 61/1/62
f 58/1/57 59/1/59 63/1/63 62/1/61
f 59/1/59 60/1/60 64/1/64 63/1/63
f 60/1/60 57/1/58 61/1/62 64/1/64
f 61/1/62 62/1/61 66/1/65 65/1/66
f 62/1/61 63/1/63 67/1/67 66/1/65
f 63/1/63 64/1/64 68/1/68 67/1/67
f 64/1/64 61/1/62 65/1/66 68/1/68
f 65/1/66 66/1/65 70/1/69 69/1/70
f 66/1/65 67/1/67 71/1/71 70/1/69
f 67/1/67 68/1/68 72/1/72 71/1/71
f 68/1/68 65/1/66 69/1/70 72/1/72
f 69/1/70 70/1/69 74/1/73 73/1/74
f 70/1/69 71/1/71 75/1/75 74/1/73
f 71/1/71 72/1/72 76/1/76 75/1/75
f 72/1/72 69/1/70 73/1/74 76/1/76
f 73/1/74 74/1/73 78/1/77 77/1/78
f 74/1/73 75/1/75 79/1/79 78/1/77
f 75/1/75 76/1/76 80/1/80 79/1/79
f 76/1/76 73/1/74 77/1/78 80/1/80
f 77/1/78 78/1/77 82/1/81 81/1/82
f 78/1/77 79/1/79 83/1/83 82/1/81
f 79/1/79 80/1/80 84/1/84 83/1/83
f 80/1/80 77/1/78 81/1/82 84/1/84
f 81/1/82 82/1/81 86/1/85 85/1/86
f 82/1/81 83/1/83 87/1/87 86/1/85
f 83/1/83 84/1/84 88/1/88 87/1/87
f 84/1/84 81/1/82 85/1/86 88/1/88
f 85/1/86 86/1/85 90/1/89 89/1/90
f 86/1/85 87/1/87 91/1/91 90/1/89
f 87/1/87 88/1/88 92/1/92 91/1/91
f 88/1/88 85/1/86 89/1/90 92/1/92
f 89/1/90 90/1/89 94/1/93 93/1/94
f 90/1/89 91/1/91 95/1/95 94/1/93
f 91/1/91 92/1/92 96/1/96 95/1/95
f 92/1/92 89/1/90 93/1/94 96/1/96
f 93/1/94 94/1/93 98/1/97 97/1/98
f 94/1/93 95/1/95 99/1/99 98/1/97
f 95/1/95 96/1/96 100/1/100 99/1/99
f 96/1/96 93/1/94 97/1/98 100/1/100
f 97/1/98 98/1/97 102/1/101 101/1/102
f 98/1/97 99/1/99 103/1/103 102/1/101
f 99/1/99 100/1/100 104/1/104 103/1/103
f 100/1/100 97/1/98 101/1/102 104/1/104
f 101/1/102 102/1/101 106/1/105 105/1/106
f 102/1/101 103/1/103 107/1/107 106/1/105
f 103/1/103 104/1/104 108/1/108 107/1/107
f 104/1/104 101/1/102 105/1/106 108/1/108
f 105/1/106 106/1/105 110/1/109 109/1/110
f 106/1/105 107/1/107 111/1/111 110/1/109
f 107/1/107 108/1/108 112/1/112 111/1/111
f 108/1/108 105/1/106 109/1/110 112/1/112
f 109/1/110 110/1/109 114/1/113 113/1/114
f 110/1/109 111/1/111 115/1/115 114/1/113
f 111/1/111 112/1/112 116/1/116 115/1/115
f 112/1/112 109/1/110 113/1/114 116/1/116
f 113/1/114 114/1/113 118/1/117 117/1/118
f 114/1/113 115/1/115 119/1/119 118/1/117
f 115/1/115 116/1/116 120/1/120 119/1/119
f 116/1/116 113/1/114 117/1/118 120/1/120
f 117/1/118 118/1/117 122/1/121 121/1/122
f 118/1/117 119/1/119 123/1/123 122/1/121
f 119/1/119 120/1/120 124/1/124 123/1/123
f 120/1/120 117/1/118 121/1/122 124/1/124
f 121/1/122 122/1/121 126/1/125 125/1/126
f 122/1/121 123/1/123 127/1/127 126/1/125
f 123/1/123 124/1/124 128/1/128 127/1/127
f 124/1/124 121/1/122 125/1/126 128/1/128
f 125/1/126 126/1/125 2/1/2 1/1/1
f 126/1/125 127/1/127 3/1/5 2/1/2
f 127/1/127 128/1/128 4/1/7 3/1/5
f 128/1/128 125/1/126 1/1/1 4/1/7
