# Blender 3.6.9
# www.blender.org
o rotate_mask
v 0.000000 1.000000 0.000000
v 0.191342 0.980785 -0.038060
v 0.180240 0.980785 -0.074658
v 0.162212 0.980785 -0.108386
v 0.137950 0.980785 -0.137950
v 0.108386 0.980785 -0.162212
v 0.074658 0.980785 -0.180240
v 0.038060 0.980785 -0.191342
v -0.000000 0.980785 -0.195090
v -0.038060 0.980785 -0.191342
v -0.074658 0.980785 -0.180240
v -0.108386 0.980785 -0.162212
v -0.137950 0.980785 -0.137950
v -0.162212 0.980785 -0.108386
v -0.180240 0.980785 -0.074658
v -0.191342 0.980785 -0.038060
v -0.195090 0.980785 0.000000
v -0.191342 0.980785 0.038060
v -0.180240 0.980785 0.074658
v -0.162212 0.980785 0.108386
v -0.137950 0.980785 0.137950
v -0.108386 0.980785 0.162212
v -0.074658 0.980785 0.180240
v -0.038060 0.980785 0.191342
v 0.000000 0.980785 0.195090
v 0.038060 0.980785 0.191342
v 0.074658 0.980785 0.180240
v 0.108386 0.980785 0.162212
v 0.137950 0.980785 0.137950
v 0.162212 0.980785 0.108386
v 0.180240 0.980785 0.074658
v 0.191342 0.980785 0.038060
v 0.195090 0.980785 -0.000000
v 0.375330 0.923880 -0.074658
v 0.353553 0.923880 -0.146447
v 0.318190 0.923880 -0.212608
v 0.270598 0.923880 -0.270598
v 0.212608 0.923880 -0.318190
v 0.146447 0.923880 -0.353553
v 0.074658 0.923880 -0.375330
v -0.000000 0.923880 -0.382683
v -0.074658 0.923880 -0.375330
v -0.146447 0.923880 -0.353553
v -0.212608 0.923880 -0.318190
v -0.270598 0.923880 -0.270598
v -0.318190 0.923880 -0.212608
v -0.353553 0.923880 -0.146447
v -0.375330 0.923880 -0.074658
v -0.382683 0.923880 0.000000
v -0.375330 0.923880 0.074658
v -0.353553 0.923880 0.146447
v -0.318190 0.923880 0.212608
v -0.270598 0.923880 0.270598
v -0.212607 0.923880 0.318190
v -0.146446 0.923880 0.353553
v -0.074658 0.923880 0.375330
v 0.000000 0.923880 0.382683
v 0.074658 0.923880 0.375330
v 0.146447 0.923880 0.353553
v 0.212608 0.923880 0.318190
v 0.270598 0.923880 0.270598
v 0.318190 0.923880 0.212608
v 0.353553 0.923880 0.146447
v 0.375330 0.923880 0.074658
v 0.382683 0.923880 -0.000000
v 0.544895 0.831470 -0.108386
v 0.513280 0.831470 -0.212608
v 0.461940 0.831470 -0.308658
v 0.392847 0.831470 -0.392847
v 0.308658 0.831470 -0.461940
v 0.212608 0.831470 -0.513280
v 0.108386 0.831470 -0.544895
v -0.000000 0.831470 -0.555570
v -0.108386 0.831470 -0.544895
v -0.212608 0.831470 -0.513280
v -0.308658 0.831470 -0.461940
v -0.392847 0.831470 -0.392847
v -0.461940 0.831470 -0.308658
v -0.513280 0.831470 -0.212607
v -0.544895 0.831470 -0.108386
v -0.555570 0.831470 0.000000
v -0.544895 0.831470 0.108386
v -0.513280 0.831470 0.212608
v -0.461940 0.831470 0.308658
v -0.392847 0.831470 0.392848
v -0.308658 0.831470 0.461940
v -0.212607 0.831470 0.513280
v -0.108386 0.831470 0.544895
v 0.000000 0.831470 0.555570
v 0.108386 0.831470 0.544895
v 0.212608 0.831470 0.513280
v 0.308658 0.831470 0.461940
v 0.392848 0.831470 0.392847
v 0.461940 0.831470 0.308658
v 0.513280 0.831470 0.212608
v 0.544895 0.831470 0.108386
v 0.555570 0.831470 -0.000000
v 0.693520 0.707107 -0.137950
v 0.653281 0.707107 -0.270598
v 0.587938 0.707107 -0.392847
v 0.500000 0.707107 -0.500000
v 0.392847 0.707107 -0.587938
v 0.270598 0.707107 -0.653281
v 0.137950 0.707107 -0.693520
v -0.000000 0.707107 -0.707107
v -0.137950 0.707107 -0.693520
v -0.270598 0.707107 -0.653281
v -0.392848 0.707107 -0.587938
v -0.500000 0.707107 -0.500000
v -0.587938 0.707107 -0.392847
v -0.653282 0.707107 -0.270598
v -0.693520 0.707107 -0.137950
v -0.707107 0.707107 0.000000
v -0.693520 0.707107 0.137950
v -0.653281 0.707107 0.270598
v -0.587938 0.707107 0.392848
v -0.500000 0.707107 0.500000
v -0.392847 0.707107 0.587938
v -0.270598 0.707107 0.653282
v -0.137950 0.707107 0.693520
v 0.000000 0.707107 0.707107
v 0.137950 0.707107 0.693520
v 0.270598 0.707107 0.653281
v 0.392848 0.707107 0.587938
v 0.500000 0.707107 0.500000
v 0.587938 0.707107 0.392848
v 0.653282 0.707107 0.270598
v 0.693520 0.707107 0.137950
v 0.707107 0.707107 -0.000000
v 0.815493 0.555570 -0.162212
v 0.768178 0.555570 -0.318190
v 0.691342 0.555570 -0.461940
v 0.587938 0.555570 -0.587938
v 0.461940 0.555570 -0.691342
v 0.318190 0.555570 -0.768178
v 0.162212 0.555570 -0.815493
v -0.000000 0.555570 -0.831470
v -0.162212 0.555570 -0.815493
v -0.318190 0.555570 -0.768178
v -0.461940 0.555570 -0.691342
v -0.587938 0.555570 -0.587938
v -0.691342 0.555570 -0.461940
v -0.768178 0.555570 -0.318190
v -0.815493 0.555570 -0.162212
v -0.831470 0.555570 0.000000
v -0.815493 0.555570 0.162212
v -0.768178 0.555570 0.318190
v -0.691342 0.555570 0.461940
v -0.587938 0.555570 0.587938
v -0.461940 0.555570 0.691342
v -0.318189 0.555570 0.768178
v -0.162212 0.555570 0.815493
v 0.000000 0.555570 0.831470
v 0.162212 0.555570 0.815493
v 0.318190 0.555570 0.768178
v 0.461940 0.555570 0.691342
v 0.587938 0.555570 0.587938
v 0.691342 0.555570 0.461940
v 0.768178 0.555570 0.318190
v 0.815493 0.555570 0.162212
v 0.831470 0.555570 -0.000000
v 0.906127 0.382683 -0.180240
v 0.853553 0.382683 -0.353553
v 0.768178 0.382683 -0.513280
v 0.653281 0.382683 -0.653281
v 0.513280 0.382683 -0.768178
v 0.353553 0.382683 -0.853553
v 0.180240 0.382683 -0.906127
v -0.000000 0.382683 -0.923880
v -0.180240 0.382683 -0.906127
v -0.353553 0.382683 -0.853553
v -0.513280 0.382683 -0.768178
v -0.653281 0.382683 -0.653281
v -0.768178 0.382683 -0.513280
v -0.853553 0.382683 -0.353553
v -0.906127 0.382683 -0.180240
v -0.923880 0.382683 0.000000
v -0.906127 0.382683 0.180240
v -0.853553 0.382683 0.353553
v -0.768178 0.382683 0.513280
v -0.653281 0.382683 0.653282
v -0.513280 0.382683 0.768178
v -0.353553 0.382683 0.853553
v -0.180240 0.382683 0.906127
v 0.000000 0.382683 0.923880
v 0.180240 0.382683 0.906127
v 0.353554 0.382683 0.853553
v 0.513280 0.382683 0.768178
v 0.653282 0.382683 0.653281
v 0.768178 0.382683 0.513280
v 0.853553 0.382683 0.353553
v 0.906127 0.382683 0.180240
v 0.923880 0.382683 -0.000000
v 0.961940 0.195090 -0.191342
v 0.906127 0.195090 -0.375330
v 0.815493 0.195090 -0.544895
v 0.693520 0.195090 -0.693520
v 0.544895 0.195090 -0.815493
v 0.375330 0.195090 -0.906127
v 0.191342 0.195090 -0.961940
v -0.000000 0.195090 -0.980785
v -0.191342 0.195090 -0.961940
v -0.375330 0.195090 -0.906127
v -0.544895 0.195090 -0.815493
v -0.693520 0.195090 -0.693520
v -0.815493 0.195090 -0.544895
v -0.906128 0.195090 -0.375330
v -0.961940 0.195090 -0.191342
v -0.980785 0.195090 0.000000
v -0.961940 0.195090 0.191342
v -0.906127 0.195090 0.375330
v -0.815493 0.195090 0.544895
v -0.693520 0.195090 0.693520
v -0.544895 0.195090 0.815493
v -0.375330 0.195090 0.906128
v -0.191342 0.195090 0.961940
v 0.000000 0.195090 0.980785
v 0.191342 0.195090 0.961940
v 0.375330 0.195090 0.906127
v 0.544895 0.195090 0.815493
v 0.693520 0.195090 0.693520
v 0.815493 0.195090 0.544895
v 0.906128 0.195090 0.375330
v 0.961940 0.195090 0.191342
v 0.980785 0.195090 -0.000000
v 0.980785 -0.000000 -0.195090
v 0.923880 -0.000000 -0.382683
v 0.831470 -0.000000 -0.555570
v 0.707107 -0.000000 -0.707107
v 0.555570 -0.000000 -0.831470
v 0.382683 -0.000000 -0.923880
v 0.195090 -0.000000 -0.980785
v -0.000000 -0.000000 -1.000000
v -0.195090 -0.000000 -0.980785
v -0.382684 -0.000000 -0.923880
v -0.555570 -0.000000 -0.831470
v -0.707107 -0.000000 -0.707107
v -0.831470 -0.000000 -0.555570
v -0.923880 -0.000000 -0.382683
v -0.980785 -0.000000 -0.195090
v -1.000000 -0.000000 0.000000
v -0.980785 -0.000000 0.195090
v -0.923880 -0.000000 0.382683
v -0.831470 -0.000000 0.555570
v -0.707107 -0.000000 0.707107
v -0.555570 -0.000000 0.831470
v -0.382683 -0.000000 0.923880
v -0.195090 -0.000000 0.980785
v 0.000000 -0.000000 1.000000
v 0.195090 -0.000000 0.980785
v 0.382684 -0.000000 0.923879
v 0.555570 -0.000000 0.831469
v 0.707107 -0.000000 0.707107
v 0.831470 -0.000000 0.555570
v 0.923880 -0.000000 0.382683
v 0.980785 -0.000000 0.195090
v 1.000000 -0.000000 -0.000000
v 0.961940 -0.195090 -0.191342
v 0.906127 -0.195090 -0.375330
v 0.815493 -0.195090 -0.544895
v 0.693520 -0.195090 -0.693520
v 0.544895 -0.195090 -0.815493
v 0.375330 -0.195090 -0.906127
v 0.191342 -0.195090 -0.961940
v -0.000000 -0.195090 -0.980785
v -0.191342 -0.195090 -0.961940
v -0.375330 -0.195090 -0.906127
v -0.544895 -0.195090 -0.815493
v -0.693520 -0.195090 -0.693520
v -0.815493 -0.195090 -0.544895
v -0.906128 -0.195090 -0.375330
v -0.961940 -0.195090 -0.191342
v -0.980785 -0.195090 0.000000
v -0.961940 -0.195090 0.191342
v -0.906127 -0.195090 0.375330
v -0.815493 -0.195090 0.544895
v -0.693520 -0.195090 0.693520
v -0.544895 -0.195090 0.815493
v -0.375330 -0.195090 0.906128
v -0.191342 -0.195090 0.961940
v 0.000000 -0.195090 0.980785
v 0.191342 -0.195090 0.961940
v 0.375330 -0.195090 0.906127
v 0.544895 -0.195090 0.815493
v 0.693520 -0.195090 0.693520
v 0.815493 -0.195090 0.544895
v 0.906127 -0.195090 0.375330
v 0.961940 -0.195090 0.191342
v 0.980785 -0.195090 -0.000000
v 0.906127 -0.382684 -0.180240
v 0.853553 -0.382684 -0.353553
v 0.768178 -0.382684 -0.513280
v 0.653281 -0.382684 -0.653281
v 0.513280 -0.382684 -0.768178
v 0.353553 -0.382684 -0.853553
v 0.180240 -0.382684 -0.906127
v -0.000000 -0.382684 -0.923880
v -0.180240 -0.382684 -0.906127
v -0.353553 -0.382684 -0.853553
v -0.513280 -0.382684 -0.768178
v -0.653281 -0.382684 -0.653281
v -0.768178 -0.382684 -0.513280
v -0.853553 -0.382684 -0.353553
v -0.906127 -0.382684 -0.180240
v -0.923880 -0.382684 0.000000
v -0.906127 -0.382684 0.180240
v -0.853553 -0.382684 0.353553
v -0.768178 -0.382684 0.513280
v -0.653281 -0.382684 0.653282
v -0.513280 -0.382684 0.768178
v -0.353553 -0.382684 0.853553
v -0.180240 -0.382684 0.906127
v 0.000000 -0.382684 0.923880
v 0.180240 -0.382684 0.906127
v 0.353554 -0.382684 0.853553
v 0.513280 -0.382684 0.768178
v 0.653282 -0.382684 0.653281
v 0.768178 -0.382684 0.513280
v 0.853553 -0.382684 0.353553
v 0.906127 -0.382684 0.180240
v 0.923880 -0.382684 -0.000000
v 0.815493 -0.555570 -0.162212
v 0.768178 -0.555570 -0.318190
v 0.691342 -0.555570 -0.461940
v 0.587938 -0.555570 -0.587938
v 0.461940 -0.555570 -0.691342
v 0.318190 -0.555570 -0.768178
v 0.162212 -0.555570 -0.815493
v -0.000000 -0.555570 -0.831470
v -0.162212 -0.555570 -0.815493
v -0.318190 -0.555570 -0.768178
v -0.461940 -0.555570 -0.691342
v -0.587938 -0.555570 -0.587938
v -0.691342 -0.555570 -0.461940
v -0.768178 -0.555570 -0.318189
v -0.815493 -0.555570 -0.162212
v -0.831470 -0.555570 0.000000
v -0.815493 -0.555570 0.162212
v -0.768178 -0.555570 0.318190
v -0.691342 -0.555570 0.461940
v -0.587938 -0.555570 0.587938
v -0.461940 -0.555570 0.691342
v -0.318189 -0.555570 0.768178
v -0.162212 -0.555570 0.815493
v 0.000000 -0.555570 0.831470
v 0.162212 -0.555570 0.815493
v 0.318190 -0.555570 0.768178
v 0.461940 -0.555570 0.691342
v 0.587938 -0.555570 0.587938
v 0.691342 -0.555570 0.461940
v 0.768178 -0.555570 0.318190
v 0.815493 -0.555570 0.162212
v 0.831470 -0.555570 -0.000000
v 0.693520 -0.707107 -0.137950
v 0.653281 -0.707107 -0.270598
v 0.587938 -0.707107 -0.392847
v 0.500000 -0.707107 -0.500000
v 0.392847 -0.707107 -0.587938
v 0.270598 -0.707107 -0.653281
v 0.137950 -0.707107 -0.693520
v -0.000000 -0.707107 -0.707107
v -0.137950 -0.707107 -0.693520
v -0.270598 -0.707107 -0.653281
v -0.392848 -0.707107 -0.587938
v -0.500000 -0.707107 -0.500000
v -0.587938 -0.707107 -0.392847
v -0.653282 -0.707107 -0.270598
v -0.693520 -0.707107 -0.137950
v -0.707107 -0.707107 0.000000
v -0.693520 -0.707107 0.137950
v -0.653281 -0.707107 0.270598
v -0.587938 -0.707107 0.392848
v -0.500000 -0.707107 0.500000
v -0.392847 -0.707107 0.587938
v -0.270598 -0.707107 0.653282
v -0.137950 -0.707107 0.693520
v 0.000000 -0.707107 0.707107
v 0.137950 -0.707107 0.693520
v 0.270598 -0.707107 0.653281
v 0.392848 -0.707107 0.587938
v 0.500000 -0.707107 0.500000
v 0.587938 -0.707107 0.392848
v 0.653282 -0.707107 0.270598
v 0.693520 -0.707107 0.137950
v 0.707107 -0.707107 -0.000000
v 0.544895 -0.831470 -0.108386
v 0.513280 -0.831470 -0.212608
v 0.461940 -0.831470 -0.308658
v 0.392847 -0.831470 -0.392847
v 0.308658 -0.831470 -0.461940
v 0.212608 -0.831470 -0.513280
v 0.108386 -0.831470 -0.544895
v -0.000000 -0.831470 -0.555570
v -0.108386 -0.831470 -0.544895
v -0.212608 -0.831470 -0.513280
v -0.308658 -0.831470 -0.461940
v -0.392847 -0.831470 -0.392847
v -0.461940 -0.831470 -0.308658
v -0.513280 -0.831470 -0.212607
v -0.544895 -0.831470 -0.108386
v -0.555570 -0.831470 0.000000
v -0.544895 -0.831470 0.108386
v -0.513280 -0.831470 0.212608
v -0.461940 -0.831470 0.308658
v -0.392847 -0.831470 0.392848
v -0.308658 -0.831470 0.461940
v -0.212607 -0.831470 0.513280
v -0.108386 -0.831470 0.544895
v 0.000000 -0.831470 0.555570
v 0.108386 -0.831470 0.544895
v 0.212608 -0.831470 0.513280
v 0.308658 -0.831470 0.461940
v 0.392848 -0.831470 0.392847
v 0.461940 -0.831470 0.308658
v 0.513280 -0.831470 0.212608
v 0.544895 -0.831470 0.108386
v 0.555570 -0.831470 -0.000000
v 0.375330 -0.923880 -0.074658
v 0.353553 -0.923880 -0.146447
v 0.318190 -0.923880 -0.212607
v 0.270598 -0.923880 -0.270598
v 0.212607 -0.923880 -0.318190
v 0.146447 -0.923880 -0.353553
v 0.074658 -0.923880 -0.375330
v -0.000000 -0.923880 -0.382683
v -0.074658 -0.923880 -0.375330
v -0.146447 -0.923880 -0.353553
v -0.212607 -0.923880 -0.318189
v -0.270598 -0.923880 -0.270598
v -0.318190 -0.923880 -0.212607
v -0.353553 -0.923880 -0.146446
v -0.375330 -0.923880 -0.074658
v -0.382683 -0.923880 0.000000
v -0.375330 -0.923880 0.074658
v -0.353553 -0.923880 0.146447
v -0.318189 -0.923880 0.212607
v -0.270598 -0.923880 0.270598
v -0.212607 -0.923880 0.318190
v -0.146446 -0.923880 0.353553
v -0.074658 -0.923880 0.375330
v 0.000000 -0.923880 0.382683
v 0.074658 -0.923880 0.375330
v 0.146447 -0.923880 0.353553
v 0.212608 -0.923880 0.318189
v 0.270598 -0.923880 0.270598
v 0.318190 -0.923880 0.212607
v 0.353553 -0.923880 0.146447
v 0.375330 -0.923880 0.074658
v 0.382683 -0.923880 -0.000000
v 0.191342 -0.980785 -0.038060
v 0.180240 -0.980785 -0.074658
v 0.162212 -0.980785 -0.108386
v 0.137950 -0.980785 -0.137950
v 0.108386 -0.980785 -0.162212
v 0.074658 -0.980785 -0.180240
v 0.038060 -0.980785 -0.191342
v -0.000000 -0.980785 -0.195090
v -0.038060 -0.980785 -0.191342
v -0.074658 -0.980785 -0.180240
v -0.108386 -0.980785 -0.162212
v -0.137950 -0.980785 -0.137950
v -0.162212 -0.980785 -0.108386
v -0.180240 -0.980785 -0.074658
v -0.191342 -0.980785 -0.038060
v -0.195090 -0.980785 0.000000
v -0.191342 -0.980785 0.038060
v -0.180240 -0.980785 0.074658
v -0.162212 -0.980785 0.108386
v -0.137950 -0.980785 0.137950
v -0.108386 -0.980785 0.162212
v -0.074658 -0.980785 0.180240
v -0.038060 -0.980785 0.191342
v 0.000000 -0.980785 0.195090
v 0.038060 -0.980785 0.191342
v 0.074658 -0.980785 0.180240
v 0.108386 -0.980785 0.162212
v 0.137950 -0.980785 0.137950
v 0.162212 -0.980785 0.108386
v 0.180240 -0.980785 0.074658
v 0.191342 -0.980785 0.038060
v 0.195090 -0.980785 -0.000000
v 0.000000 -1.000000 0.000000
vn 0.0942 0.9951 -0.0286
vn 0.0869 0.9951 -0.0464
vn 0.0761 0.9951 -0.0625
vn 0.0625 0.9951 -0.0761
vn 0.0464 0.9951 -0.0869
vn 0.0286 0.9951 -0.0942
vn 0.0097 0.9951 -0.0980
vn -0.0097 0.9951 -0.0980
vn -0.0286 0.9951 -0.0942
vn -0.0464 0.9951 -0.0869
vn -0.0625 0.9951 -0.0761
vn -0.0761 0.9951 -0.0625
vn -0.0869 0.9951 -0.0464
vn -0.0942 0.9951 -0.0286
vn -0.0980 0.9951 -0.0097
vn -0.0980 0.9951 0.0097
vn -0.0942 0.9951 0.0286
vn -0.0869 0.9951 0.0464
vn -0.0761 0.9951 0.0625
vn -0.0625 0.9951 0.0761
vn -0.0464 0.9951 0.0869
vn -0.0286 0.9951 0.0942
vn -0.0097 0.9951 0.0980
vn 0.0097 0.9951 0.0980
vn 0.0286 0.9951 0.0942
vn 0.0464 0.9951 0.0869
vn 0.0625 0.9951 0.0761
vn 0.0761 0.9951 0.0625
vn 0.0869 0.9951 0.0464
vn 0.0942 0.9951 0.0286
vn 0.0980 0.9951 0.0097
vn 0.0980 0.9951 -0.0097
vn 0.2790 0.9565 -0.0846
vn 0.2571 0.9565 -0.1374
vn 0.2254 0.9565 -0.1850
vn 0.1850 0.9565 -0.2254
vn 0.1374 0.9565 -0.2571
vn 0.0846 0.9565 -0.2790
vn 0.0286 0.9565 -0.2902
vn -0.0286 0.9565 -0.2902
vn -0.0846 0.9565 -0.2790
vn -0.1374 0.9565 -0.2571
vn -0.1850 0.9565 -0.2254
vn -0.2254 0.9565 -0.1850
vn -0.2571 0.9565 -0.1374
vn -0.2790 0.9565 -0.0846
vn -0.2902 0.9565 -0.0286
vn -0.2902 0.9565 0.0286
vn -0.2790 0.9565 0.0846
vn -0.2571 0.9565 0.1374
vn -0.2254 0.9565 0.1850
vn -0.1850 0.9565 0.2254
vn -0.1374 0.9565 0.2571
vn -0.0846 0.9565 0.2790
vn -0.0286 0.9565 0.2902
vn 0.0286 0.9565 0.2902
vn 0.0846 0.9565 0.2790
vn 0.1374 0.9565 0.2571
vn 0.1850 0.9565 0.2254
vn 0.2254 0.9565 0.1850
vn 0.2571 0.9565 0.1374
vn 0.2790 0.9565 0.0846
vn 0.2902 0.9565 0.0286
vn 0.2902 0.9565 -0.0286
vn 0.4528 0.8810 -0.1374
vn 0.4173 0.8810 -0.2230
vn 0.3658 0.8810 -0.3002
vn 0.3002 0.8810 -0.3658
vn 0.2230 0.8810 -0.4173
vn 0.1374 0.8810 -0.4528
vn 0.0464 0.8810 -0.4709
vn -0.0464 0.8810 -0.4709
vn -0.1374 0.8810 -0.4528
vn -0.2230 0.8810 -0.4173
vn -0.3002 0.8810 -0.3658
vn -0.3658 0.8810 -0.3002
vn -0.4173 0.8810 -0.2230
vn -0.4528 0.8810 -0.1374
vn -0.4709 0.8810 -0.0464
vn -0.4709 0.8810 0.0464
vn -0.4528 0.8810 0.1374
vn -0.4173 0.8810 0.2230
vn -0.3658 0.8810 0.3002
vn -0.3002 0.8810 0.3658
vn -0.2230 0.8810 0.4173
vn -0.1374 0.8810 0.4528
vn -0.0464 0.8810 0.4709
vn 0.0464 0.8810 0.4709
vn 0.1374 0.8810 0.4528
vn 0.2230 0.8810 0.4173
vn 0.3002 0.8810 0.3658
vn 0.3658 0.8810 0.3002
vn 0.4173 0.8810 0.2230
vn 0.4528 0.8810 0.1374
vn 0.4709 0.8810 0.0464
vn 0.4709 0.8810 -0.0464
vn 0.6088 0.7715 -0.1847
vn 0.5611 0.7715 -0.2999
vn 0.4918 0.7715 -0.4036
vn 0.4036 0.7715 -0.4918
vn 0.2999 0.7715 -0.5611
vn 0.1847 0.7715 -0.6088
vn 0.0624 0.7715 -0.6332
vn -0.0624 0.7715 -0.6332
vn -0.1847 0.7715 -0.6088
vn -0.2999 0.7715 -0.5611
vn -0.4036 0.7715 -0.4918
vn -0.4918 0.7715 -0.4036
vn -0.5611 0.7715 -0.2999
vn -0.6088 0.7715 -0.1847
vn -0.6332 0.7715 -0.0624
vn -0.6332 0.7715 0.0624
vn -0.6088 0.7715 0.1847
vn -0.5611 0.7715 0.2999
vn -0.4918 0.7715 0.4036
vn -0.4036 0.7715 0.4918
vn -0.2999 0.7715 0.5611
vn -0.1847 0.7715 0.6088
vn -0.0624 0.7715 0.6332
vn 0.0624 0.7715 0.6332
vn 0.1847 0.7715 0.6088
vn 0.2999 0.7715 0.5611
vn 0.4036 0.7715 0.4918
vn 0.4918 0.7715 0.4036
vn 0.5611 0.7715 0.2999
vn 0.6088 0.7715 0.1847
vn 0.6332 0.7715 0.0624
vn 0.6332 0.7715 -0.0624
vn 0.7412 0.6326 -0.2248
vn 0.6831 0.6326 -0.3651
vn 0.5987 0.6326 -0.4913
vn 0.4913 0.6326 -0.5987
vn 0.3651 0.6326 -0.6831
vn 0.2248 0.6326 -0.7412
vn 0.0759 0.6326 -0.7708
vn -0.0759 0.6326 -0.7708
vn -0.2248 0.6326 -0.7412
vn -0.3651 0.6326 -0.6831
vn -0.4913 0.6326 -0.5987
vn -0.5987 0.6326 -0.4913
vn -0.6831 0.6326 -0.3651
vn -0.7412 0.6326 -0.2248
vn -0.7708 0.6326 -0.0759
vn -0.7708 0.6326 0.0759
vn -0.7412 0.6326 0.2248
vn -0.6831 0.6326 0.3651
vn -0.5987 0.6326 0.4913
vn -0.4913 0.6326 0.5987
vn -0.3651 0.6326 0.6831
vn -0.2248 0.6326 0.7412
vn -0.0759 0.6326 0.7708
vn 0.0759 0.6326 0.7708
vn 0.2248 0.6326 0.7412
vn 0.3651 0.6326 0.6831
vn 0.4913 0.6326 0.5987
vn 0.5987 0.6326 0.4913
vn 0.6831 0.6326 0.3651
vn 0.7412 0.6326 0.2248
vn 0.7708 0.6326 0.0759
vn 0.7708 0.6326 -0.0759
vn 0.8448 0.4696 -0.2563
vn 0.7786 0.4696 -0.4162
vn 0.6825 0.4696 -0.5601
vn 0.5601 0.4696 -0.6825
vn 0.4162 0.4696 -0.7786
vn 0.2563 0.4696 -0.8448
vn 0.0865 0.4696 -0.8786
vn -0.0865 0.4696 -0.8786
vn -0.2563 0.4696 -0.8448
vn -0.4162 0.4696 -0.7786
vn -0.5601 0.4696 -0.6825
vn -0.6825 0.4696 -0.5601
vn -0.7786 0.4696 -0.4162
vn -0.8448 0.4696 -0.2563
vn -0.8786 0.4696 -0.0865
vn -0.8786 0.4696 0.0865
vn -0.8448 0.4696 0.2563
vn -0.7786 0.4696 0.4162
vn -0.6825 0.4696 0.5601
vn -0.5601 0.4696 0.6825
vn -0.4162 0.4696 0.7786
vn -0.2563 0.4696 0.8448
vn -0.0865 0.4696 0.8786
vn 0.0865 0.4696 0.8786
vn 0.2563 0.4696 0.8448
vn 0.4162 0.4696 0.7786
vn 0.5601 0.4696 0.6825
vn 0.6825 0.4696 0.5601
vn 0.7786 0.4696 0.4162
vn 0.8448 0.4696 0.2563
vn 0.8786 0.4696 0.0865
vn 0.8786 0.4696 -0.0865
vn 0.9161 0.2890 -0.2779
vn 0.8443 0.2890 -0.4513
vn 0.7400 0.2890 -0.6073
vn 0.6073 0.2890 -0.7400
vn 0.4513 0.2890 -0.8443
vn 0.2779 0.2890 -0.9161
vn 0.0938 0.2890 -0.9527
vn -0.0938 0.2890 -0.9527
vn -0.2779 0.2890 -0.9161
vn -0.4513 0.2890 -0.8443
vn -0.6073 0.2890 -0.7400
vn -0.7400 0.2890 -0.6073
vn -0.8443 0.2890 -0.4513
vn -0.9161 0.2890 -0.2779
vn -0.9527 0.2890 -0.0938
vn -0.9527 0.2890 0.0938
vn -0.9161 0.2890 0.2779
vn -0.8443 0.2890 0.4513
vn -0.7400 0.2890 0.6073
vn -0.6073 0.2890 0.7400
vn -0.4513 0.2890 0.8443
vn -0.2779 0.2890 0.9161
vn -0.0938 0.2890 0.9527
vn 0.0938 0.2890 0.9527
vn 0.2779 0.2890 0.9161
vn 0.4513 0.2890 0.8443
vn 0.6073 0.2890 0.7400
vn 0.7400 0.2890 0.6073
vn 0.8443 0.2890 0.4513
vn 0.9161 0.2890 0.2779
vn 0.9527 0.2890 0.0938
vn 0.9527 0.2890 -0.0938
vn 0.9524 0.0975 -0.2889
vn 0.8777 0.0975 -0.4691
vn 0.7693 0.0975 -0.6314
vn 0.6314 0.0975 -0.7693
vn 0.4691 0.0975 -0.8777
vn 0.2889 0.0975 -0.9524
vn 0.0975 0.0975 -0.9904
vn -0.0975 0.0975 -0.9904
vn -0.2889 0.0975 -0.9524
vn -0.4691 0.0975 -0.8777
vn -0.6314 0.0975 -0.7693
vn -0.7693 0.0975 -0.6314
vn -0.8777 0.0975 -0.4691
vn -0.9524 0.0975 -0.2889
vn -0.9904 0.0975 -0.0975
vn -0.9904 0.0975 0.0975
vn -0.9524 0.0975 0.2889
vn -0.8777 0.0975 0.4691
vn -0.7693 0.0975 0.6314
vn -0.6314 0.0975 0.7693
vn -0.4691 0.0975 0.8777
vn -0.2889 0.0975 0.9524
vn -0.0975 0.0975 0.9904
vn 0.0975 0.0975 0.9904
vn 0.2889 0.0975 0.9524
vn 0.4691 0.0975 0.8777
vn 0.6314 0.0975 0.7693
vn 0.7693 0.0975 0.6314
vn 0.8777 0.0975 0.4691
vn 0.9524 0.0975 0.2889
vn 0.9904 0.0975 0.0975
vn 0.9904 0.0975 -0.0975
vn 0.9524 -0.0975 -0.2889
vn 0.8777 -0.0975 -0.4691
vn 0.7693 -0.0975 -0.6314
vn 0.6314 -0.0975 -0.7693
vn 0.4691 -0.0975 -0.8777
vn 0.2889 -0.0975 -0.9524
vn 0.0975 -0.0975 -0.9904
vn -0.0975 -0.0975 -0.9904
vn -0.2889 -0.0975 -0.9524
vn -0.4691 -0.0975 -0.8777
vn -0.6314 -0.0975 -0.7693
vn -0.7693 -0.0975 -0.6314
vn -0.8777 -0.0975 -0.4691
vn -0.9524 -0.0975 -0.2889
vn -0.9904 -0.0975 -0.0975
vn -0.9904 -0.0975 0.0975
vn -0.9524 -0.0975 0.2889
vn -0.8777 -0.0975 0.4691
vn -0.7693 -0.0975 0.6314
vn -0.6314 -0.0975 0.7693
vn -0.4691 -0.0975 0.8777
vn -0.2889 -0.0975 0.9524
vn -0.0975 -0.0975 0.9904
vn 0.0975 -0.0975 0.9904
vn 0.2889 -0.0975 0.9524
vn 0.4691 -0.0975 0.8777
vn 0.6314 -0.0975 0.7693
vn 0.7693 -0.0975 0.6314
vn 0.8777 -0.0975 0.4691
vn 0.9524 -0.0975 0.2889
vn 0.9904 -0.0975 0.0975
vn 0.9904 -0.0975 -0.0975
vn 0.9161 -0.2890 -0.2779
vn 0.8443 -0.2890 -0.4513
vn 0.7400 -0.2890 -0.6073
vn 0.6073 -0.2890 -0.7400
vn 0.4513 -0.2890 -0.8443
vn 0.2779 -0.2890 -0.9161
vn 0.0938 -0.2890 -0.9527
vn -0.0938 -0.2890 -0.9527
vn -0.2779 -0.2890 -0.9161
vn -0.4513 -0.2890 -0.8443
vn -0.6073 -0.2890 -0.7400
vn -0.7400 -0.2890 -0.6073
vn -0.8443 -0.2890 -0.4513
vn -0.9161 -0.2890 -0.2779
vn -0.9527 -0.2890 -0.0938
vn -0.9527 -0.2890 0.0938
vn -0.9161 -0.2890 0.2779
vn -0.8443 -0.2890 0.4513
vn -0.7400 -0.2890 0.6073
vn -0.6073 -0.2890 0.7400
vn -0.4513 -0.2890 0.8443
vn -0.2779 -0.2890 0.9161
vn -0.0938 -0.2890 0.9527
vn 0.0938 -0.2890 0.9527
vn 0.2779 -0.2890 0.9161
vn 0.4513 -0.2890 0.8443
vn 0.6073 -0.2890 0.7400
vn 0.7400 -0.2890 0.6073
vn 0.8443 -0.2890 0.4513
vn 0.9161 -0.2890 0.2779
vn 0.9527 -0.2890 0.0938
vn 0.9527 -0.2890 -0.0938
vn 0.8448 -0.4696 -0.2563
vn 0.7786 -0.4696 -0.4162
vn 0.6825 -0.4696 -0.5601
vn 0.5601 -0.4696 -0.6825
vn 0.4162 -0.4696 -0.7786
vn 0.2563 -0.4696 -0.8448
vn 0.0865 -0.4696 -0.8786
vn -0.0865 -0.4696 -0.8786
vn -0.2563 -0.4696 -0.8448
vn -0.4162 -0.4696 -0.7786
vn -0.5601 -0.4696 -0.6825
vn -0.6825 -0.4696 -0.5601
vn -0.7786 -0.4696 -0.4162
vn -0.8448 -0.4696 -0.2563
vn -0.8786 -0.4696 -0.0865
vn -0.8786 -0.4696 0.0865
vn -0.8448 -0.4696 0.2563
vn -0.7786 -0.4696 0.4162
vn -0.6825 -0.4696 0.5601
vn -0.5601 -0.4696 0.6825
vn -0.4162 -0.4696 0.7786
vn -0.2563 -0.4696 0.8448
vn -0.0865 -0.4696 0.8786
vn 0.0865 -0.4696 0.8786
vn 0.2563 -0.4696 0.8448
vn 0.4162 -0.4696 0.7786
vn 0.5601 -0.4696 0.6825
vn 0.6825 -0.4696 0.5601
vn 0.7786 -0.4696 0.4162
vn 0.8448 -0.4696 0.2563
vn 0.8786 -0.4696 0.0865
vn 0.8786 -0.4696 -0.0865
vn 0.7412 -0.6326 -0.2248
vn 0.6831 -0.6326 -0.3651
vn 0.5987 -0.6326 -0.4913
vn 0.4913 -0.6326 -0.5987
vn 0.3651 -0.6326 -0.6831
vn 0.2248 -0.6326 -0.7412
vn 0.0759 -0.6326 -0.7708
vn -0.0759 -0.6326 -0.7708
vn -0.2248 -0.6326 -0.7412
vn -0.3651 -0.6326 -0.6831
vn -0.4913 -0.6326 -0.5987
vn -0.5987 -0.6326 -0.4913
vn -0.6831 -0.6326 -0.3651
vn -0.7412 -0.6326 -0.2248
vn -0.7708 -0.6326 -0.0759
vn -0.7708 -0.6326 0.0759
vn -0.7412 -0.6326 0.2248
vn -0.6831 -0.6326 0.3651
vn -0.5987 -0.6326 0.4913
vn -0.4913 -0.6326 0.5987
vn -0.3651 -0.6326 0.6831
vn -0.2248 -0.6326 0.7412
vn -0.0759 -0.6326 0.7708
vn 0.0759 -0.6326 0.7708
vn 0.2248 -0.6326 0.7412
vn 0.3651 -0.6326 0.6831
vn 0.4913 -0.6326 0.5987
vn 0.5987 -0.6326 0.4913
vn 0.6831 -0.6326 0.3651
vn 0.7412 -0.6326 0.2248
vn 0.7708 -0.6326 0.0759
vn 0.7708 -0.6326 -0.0759
vn 0.6088 -0.7715 -0.1847
vn 0.5611 -0.7715 -0.2999
vn 0.4918 -0.7715 -0.4036
vn 0.4036 -0.7715 -0.4918
vn 0.2999 -0.7715 -0.5611
vn 0.1847 -0.7715 -0.6088
vn 0.0624 -0.7715 -0.6332
vn -0.0624 -0.7715 -0.6332
vn -0.1847 -0.7715 -0.6088
vn -0.2999 -0.7715 -0.5611
vn -0.4036 -0.7715 -0.4918
vn -0.4918 -0.7715 -0.4036
vn -0.5611 -0.7715 -0.2999
vn -0.6088 -0.7715 -0.1847
vn -0.6332 -0.7715 -0.0624
vn -0.6332 -0.7715 0.0624
vn -0.6088 -0.7715 0.1847
vn -0.5611 -0.7715 0.2999
vn -0.4918 -0.7715 0.4036
vn -0.4036 -0.7715 0.4918
vn -0.2999 -0.7715 0.5611
vn -0.1847 -0.7715 0.6088
vn -0.0624 -0.7715 0.6332
vn 0.0624 -0.7715 0.6332
vn 0.1847 -0.7715 0.6088
vn 0.2999 -0.7715 0.5611
vn 0.4036 -0.7715 0.4918
vn 0.4918 -0.7715 0.4036
vn 0.5611 -0.7715 0.2999
vn 0.6088 -0.7715 0.1847
vn 0.6332 -0.7715 0.0624
vn 0.6332 -0.7715 -0.0624
vn 0.4528 -0.8810 -0.1374
vn 0.4173 -0.8810 -0.2230
vn 0.3658 -0.8810 -0.3002
vn 0.3002 -0.8810 -0.3658
vn 0.2230 -0.8810 -0.4173
vn 0.1374 -0.8810 -0.4528
vn 0.0464 -0.8810 -0.4709
vn -0.0464 -0.8810 -0.4709
vn -0.1374 -0.8810 -0.4528
vn -0.2230 -0.8810 -0.4173
vn -0.3002 -0.8810 -0.3658
vn -0.3658 -0.8810 -0.3002
vn -0.4173 -0.8810 -0.2230
vn -0.4528 -0.8810 -0.1374
vn -0.4709 -0.8810 -0.0464
vn -0.4709 -0.8810 0.0464
vn -0.4528 -0.8810 0.1374
vn -0.4173 -0.8810 0.2230
vn -0.3658 -0.8810 0.3002
vn -0.3002 -0.8810 0.3658
vn -0.2230 -0.8810 0.4173
vn -0.1374 -0.8810 0.4528
vn -0.0464 -0.8810 0.4709
vn 0.0464 -0.8810 0.4709
vn 0.1374 -0.8810 0.4528
vn 0.2230 -0.8810 0.4173
vn 0.3002 -0.8810 0.3658
vn 0.3658 -0.8810 0.3002
vn 0.4173 -0.8810 0.2230
vn 0.4528 -0.8810 0.1374
vn 0.4709 -0.8810 0.0464
vn 0.4709 -0.8810 -0.0464
vn 0.2790 -0.9565 -0.0846
vn 0.2571 -0.9565 -0.1374
vn 0.2254 -0.9565 -0.1850
vn 0.1850 -0.9565 -0.2254
vn 0.1374 -0.9565 -0.2571
vn 0.0846 -0.9565 -0.2790
vn 0.0286 -0.9565 -0.2902
vn -0.0286 -0.9565 -0.2902
vn -0.0846 -0.9565 -0.2790
vn -0.1374 -0.9565 -0.2571
vn -0.1850 -0.9565 -0.2254
vn -0.2254 -0.9565 -0.1850
vn -0.2571 -0.9565 -0.1374
vn -0.2790 -0.9565 -0.0846
vn -0.2902 -0.9565 -0.0286
vn -0.2902 -0.9565 0.0286
vn -0.2790 -0.9565 0.0846
vn -0.2571 -0.9565 0.1374
vn -0.2254 -0.9565 0.1850
vn -0.1850 -0.9565 0.2254
vn -0.1374 -0.9565 0.2571
vn -0.0846 -0.9565 0.2790
vn -0.0286 -0.9565 0.2902
vn 0.0286 -0.9565 0.2902
vn 0.0846 -0.9565 0.2790
vn 0.1374 -0.9565 0.2571
vn 0.1850 -0.9565 0.2254
vn 0.2254 -0.9565 0.1850
vn 0.2571 -0.9565 0.1374
vn 0.2790 -0.9565 0.0846
vn 0.2902 -0.9565 0.0286
vn 0.2902 -0.9565 -0.0286
vn 0.0942 -0.9951 -0.0286
vn 0.0869 -0.9951 -0.0464
vn 0.0761 -0.9951 -0.0625
vn 0.0625 -0.9951 -0.0761
vn 0.0464 -0.9951 -0.0869
vn 0.0286 -0.9951 -0.0942
vn 0.0097 -0.9951 -0.0980
vn -0.0097 -0.9951 -0.0980
vn -0.0286 -0.9951 -0.0942
vn -0.0464 -0.9951 -0.0869
vn -0.0625 -0.9951 -0.0761
vn -0.0761 -0.9951 -0.0625
vn -0.0869 -0.9951 -0.0464
vn -0.0942 -0.9951 -0.0286
vn -0.0980 -0.9951 -0.0097
vn -0.0980 -0.9951 0.0097
vn -0.0942 -0.9951 0.0286
vn -0.0869 -0.9951 0.0464
vn -0.0761 -0.9951 0.0625
vn -0.0625 -0.9951 0.0761
vn -0.0464 -0.9951 0.0869
vn -0.0286 -0.9951 0.0942
vn -0.0097 -0.9951 0.0980
vn 0.0097 -0.9951 0.0980
vn 0.0286 -0.9951 0.0942
vn 0.0464 -0.9951 0.0869
vn 0.0625 -0.9951 0.0761
vn 0.0761 -0.9951 0.0625
vn 0.0869 -0.9951 0.0464
vn 0.0942 -0.9951 0.0286
vn 0.0980 -0.9951 0.0097
vn 0.0980 -0.9951 -0.0097
vt 0.000000 0.000000
s 0
f 1/1/1 2/1/1 3/1/1
f 1/1/2 3/1/2 4/1/2
f 1/1/3 4/1/3 5/1/3
f 1/1/4 5/1/4 6/1/4
f 1/1/5 6/1/5 7/1/5
f 1/1/6 7/1/6 8/1/6
f 1/1/7 8/1/7 9/1/7
f 1/1/8 9/1/8 10/1/8
f 1/1/9 10/1/9 11/1/9
f 1/1/10 11/1/10 12/1/10
f 1/1/11 12/1/11 13/1/11
f 1/1/12 13/1/12 14/1/12
f 1/1/13 14/1/13 15/1/13
f 1/1/14 15/1/14 16/1/14
f 1/1/15 16/1/15 17/1/15
f 1/1/16 17/1/16 18/1/16
f 1/1/17 18/1/17 19/1/17
f 1/1/18 19/1/18 20/1/18
f 1/1/19 20/1/19 21/1/19
f 1/1/20 21/1/20 22/1/20
f 1/1/21 22/1/21 23/1/21
f 1/1/22 23/1/22 24/1/22
f 1/1/23 24/1/23 25/1/23
f 1/1/24 25/1/24 26/1/24
f 1/1/25 26/1/25 27/1/25
f 1/1/26 27/1/26 28/1/26
f 1/1/27 28/1/27 29/1/27
f 1/1/28 29/1/28 30/1/28
f 1/1/29 30/1/29 31/1/29
f 1/1/30 31/1/30 32/1/30
f 1/1/31 32/1/31 33/1/31
f 1/1/32 33/1/32 2/1/32
f 2/1/33 34/1/33 35/1/33 3/1/33
f 3/1/34 35/1/34 36/1/34 4/1/34
f 4/1/35 36/1/35 37/1/35 5/1/35
f 5/1/36 37/1/36 38/1/36 6/1/36
f 6/1/37 38/1/37 39/1/37 7/1/37
f 7/1/38 39/1/38 40/1/38 8/1/38
f 8/1/39 40/1/39 41/1/39 9/1/39
f 9/1/40 41/1/40 42/1/40 10/1/40
f 10/1/41 42/1/41 43/1/41 11/1/41
f 11/1/42 43/1/42 44/1/42 12/1/42
f 12/1/43 44/1/43 45/1/43 13/1/43
f 13/1/44 45/1/44 46/1/44 14/1/44
f 14/1/45 46/1/45 47/1/45 15/1/45
f 15/1/46 47/1/46 48/1/46 16/1/46
f 16/1/47 48/1/47 49/1/47 17/1/47
f 17/1/48 49/1/48 50/1/48 18/1/48
f 18/1/49 50/1/49 51/1/49 19/1/49
f 19/1/50 51/1/50 52/1/50 20/1/50
f 20/1/51 52/1/51 53/1/51 21/1/51
f 21/1/52 53/1/52 54/1/52 22/1/52
f 22/1/53 54/1/53 55/1/53 23/1/53
f 23/1/54 55/1/54 56/1/54 24/1/54
f 24/1/55 56/1/55 57/1/55 25/1/55
f 25/1/56 57/1/56 58/1/56 26/1/56
f 26/1/57 58/1/57 59/1/57 27/1/57
f 27/1/58 59/1/58 60/1/58 28/1/58
f 28/1/59 60/1/59 61/1/59 29/1/59
f 29/1/60 61/1/60 62/1/60 30/1/60
f 30/1/61 62/1/61 63/1/61 31/1/61
f 31/1/62 63/1/62 64/1/62 32/1/62
f 32/1/63 64/1/63 65/1/63 33/1/63
f 33/1/64 65/1/64 34/1/64 2/1/64
f 34/1/65 66/1/65 67/1/65 35/1/65
f 35/1/66 67/1/66 68/1/66 36/1/66
f 36/1/67 68/1/67 69/1/67 37/1/67
f 37/1/68 69/1/68 70/1/68 38/1/68
f 38/1/69 70/1/69 71/1/69 39/1/69
f 39/1/70 71/1/70 72/1/70 40/1/70
f 40/1/71 72/1/71 73/1/71 41/1/71
f 41/1/72 73/1/72 74/1/72 42/1/72
f 42/1/73 74/1/73 75/1/73 43/1/73
f 43/1/74 75/1/74 76/1/74 44/1/74
f 44/1/75 76/1/75 77/1/75 45/1/75
f 45/1/76 77/1/76 78/1/76 46/1/76
f 46/1/77 78/1/77 79/1/77 47/1/77
f 47/1/78 79/1/78 80/1/78 48/1/78
f 48/1/79 80/1/79 81/1/79 49/1/79
f 49/1/80 81/1/80 82/1/80 50/1/80
f 50/1/81 82/1/81 83/1/81 51/1/81
f 51/1/82 83/1/82 84/1/82 52/1/82
f 52/1/83 84/1/83 85/1/83 53/1/83
f 53/1/84 85/1/84 86/1/84 54/1/84
f 54/1/85 86/1/85 87/1/85 55/1/85
f 55/1/86 87/1/86 88/1/86 56/1/86
f 56/1/87 88/1/87 89/1/87 57/1/87
f 57/1/88 89/1/88 90/1/88 58/1/88
f 58/1/89 90/1/89 91/1/89 59/1/89
f 59/1/90 91/1/90 92/1/90 60/1/90
f 60/1/91 92/1/91 93/1/91 61/1/91
f 61/1/92 93/1/92 94/1/92 62/1/92
f 62/1/93 94/1/93 95/1/93 63/1/93
f 63/1/94 95/1/94 96/1/94 64/1/94
f 64/1/95 96/1/95 97/1/95 65/1/95
f 65/1/96 97/1/96 66/1/96 34/1/96
f 66/1/97 98/1/97 99/1/97 67/1/97
f 67/1/98 99/1/98 100/1/98 68/1/98
f 68/1/99 100/1/99 101/1/99 69/1/99
f 69/1/100 101/1/100 102/1/100 70/1/100
f 70/1/101 102/1/101 103/1/101 71/1/101
f 71/1/102 103/1/102 104/1/102 72/1/102
f 72/1/103 104/1/103 105/1/103 73/1/103
f 73/1/104 105/1/104 106/1/104 74/1/104
f 74/1/105 106/1/105 107/1/105 75/1/105
f 75/1/106 107/1/106 108/1/106 76/1/106
f 76/1/107 108/1/107 109/1/107 77/1/107
f 77/1/108 109/1/108 110/1/108 78/1/108
f 78/1/109 110/1/109 111/1/109 79/1/109
f 79/1/110 111/1/110 112/1/110 80/1/110
f 80/1/111 112/1/111 113/1/111 81/1/111
f 81/1/112 113/1/112 114/1/112 82/1/112
f 82/1/113 114/1/113 115/1/113 83/1/113
f 83/1/114 115/1/114 116/1/114 84/1/114
f 84/1/115 116/1/115 117/1/115 85/1/115
f 85/1/116 117/1/116 118/1/116 86/1/116
f 86/1/117 118/1/117 119/1/117 87/1/117
f 87/1/118 119/1/118 120/1/118 88/1/118
f 88/1/119 120/1/119 121/1/119 89/1/119
f 89/1/120 121/1/120 122/1/120 90/1/120
f 90/1/121 122/1/121 123/1/121 91/1/121
f 91/1/122 123/1/122 124/1/122 92/1/122
f 92/1/123 124/1/123 125/1/123 93/1/123
f 93/1/124 125/1/124 126/1/124 94/1/124
f 94/1/125 126/1/125 127/1/125 95/1/125
f 95/1/126 127/1/126 128/1/126 96/1/126
f 96/1/127 128/1/127 129/1/127 97/1/127
f 97/1/128 129/1/128 98/1/128 66/1/128
f 98/1/129 130/1/129 131/1/129 99/1/129
f 99/1/130 131/1/130 132/1/130 100/1/130
f 100/1/131 132/1/131 133/1/131 101/1/131
f 101/1/132 133/1/132 134/1/132 102/1/132
f 102/1/133 134/1/133 135/1/133 103/1/133
f 103/1/134 135/1/134 136/1/134 104/1/134
f 104/1/135 136/1/135 137/1/135 105/1/135
f 105/1/136 137/1/136 138/1/136 106/1/136
f 106/1/137 138/1/137 139/1/137 107/1/137
f 107/1/138 139/1/138 140/1/138 108/1/138
f 108/1/139 140/1/139 141/1/139 109/1/139
f 109/1/140 141/1/140 142/1/140 110/1/140
f 110/1/141 142/1/141 143/1/141 111/1/141
f 111/1/142 143/1/142 144/1/142 112/1/142
f 112/1/143 144/1/143 145/1/143 113/1/143
f 113/1/144 145/1/144 146/1/144 114/1/144
f 114/1/145 146/1/145 147/1/145 115/1/145
f 115/1/146 147/1/146 148/1/146 116/1/146
f 116/1/147 148/1/147 149/1/147 117/1/147
f 117/1/148 149/1/148 150/1/148 118/1/148
f 118/1/149 150/1/149 151/1/149 119/1/149
f 119/1/150 151/1/150 152/1/150 120/1/150
f 120/1/151 152/1/151 153/1/151 121/1/151
f 121/1/152 153/1/152 154/1/152 122/1/152
f 122/1/153 154/1/153 155/1/153 123/1/153
f 123/1/154 155/1/154 156/1/154 124/1/154
f 124/1/155 156/1/155 157/1/155 125/1/155
f 125/1/156 157/1/156 158/1/156 126/1/156
f 126/1/157 158/1/157 159/1/157 127/1/157
f 127/1/158 159/1/158 160/1/158 128/1/158
f 128/1/159 160/1/159 161/1/159 129/1/159
f 129/1/160 161/1/160 130/1/160 98/1/160
f 130/1/161 162/1/161 163/1/161 131/1/161
f 131/1/162 163/1/162 164/1/162 132/1/162
f 132/1/163 164/1/163 165/1/163 133/1/163
f 133/1/164 165/1/164 166/1/164 134/1/164
f 134/1/165 166/1/165 167/1/165 135/1/165
f 135/1/166 167/1/166 168/1/166 136/1/166
f 136/1/167 168/1/167 169/1/167 137/1/167
f 137/1/168 169/1/168 170/1/168 138/1/168
f 138/1/169 170/1/169 171/1/169 139/1/169
f 139/1/170 171/1/170 172/1/170 140/1/170
f 140/1/171 172/1/171 173/1/171 141/1/171
f 141/1/172 173/1/172 174/1/172 142/1/172
f 142/1/173 174/1/173 175/1/173 143/1/173
f 143/1/174 175/1/174 176/1/174 144/1/174
f 144/1/175 176/1/175 177/1/175 145/1/175
f 145/1/176 177/1/176 178/1/176 146/1/176
f 146/1/177 178/1/177 179/1/177 147/1/177
f 147/1/178 179/1/178 180/1/178 148/1/178
f 148/1/179 180/1/179 181/1/179 149/1/179
f 149/1/180 181/1/180 182/1/180 150/1/180
f 150/1/181 182/1/181 183/1/181 151/1/181
f 151/1/182 183/1/182 184/1/182 152/1/182
f 152/1/183 184/1/183 185/1/183 153/1/183
f 153/1/184 185/1/184 186/1/184 154/1/184
f 154/1/185 186/1/185 187/1/185 155/1/185
f 155/1/186 187/1/186 188/1/186 156/1/186
f 156/1/187 188/1/187 189/1/187 157/1/187
f 157/1/188 189/1/188 190/1/188 158/1/188
f 158/1/189 190/1/189 191/1/189 159/1/189
f 159/1/190 191/1/190 192/1/190 160/1/190
f 160/1/191 192/1/191 193/1/191 161/1/191
f 161/1/192 193/1/192 162/1/192 130/1/192
f 162/1/193 194/1/193 195/1/193 163/1/193
f 163/1/194 195/1/194 196/1/194 164/1/194
f 164/1/195 196/1/195 197/1/195 165/1/195
f 165/1/196 197/1/196 198/1/196 166/1/196
f 166/1/197 198/1/197 199/1/197 167/1/197
f 167/1/198 199/1/198 200/1/198 168/1/198
f 168/1/199 200/1/199 201/1/199 169/1/199
f 169/1/200 201/1/200 202/1/200 170/1/200
f 170/1/201 202/1/201 203/1/201 171/1/201
f 171/1/202 203/1/202 204/1/202 172/1/202
f 172/1/203 204/1/203 205/1/203 173/1/203
f 173/1/204 205/1/204 206/1/204 174/1/204
f 174/1/205 206/1/205 207/1/205 175/1/205
f 175/1/206 207/1/206 208/1/206 176/1/206
f 176/1/207 208/1/207 209/1/207 177/1/207
f 177/1/208 209/1/208 210/1/208 178/1/208
f 178/1/209 210/1/209 211/1/209 179/1/209
f 179/1/210 211/1/210 212/1/210 180/1/210
f 180/1/211 212/1/211 213/1/211 181/1/211
f 181/1/212 213/1/212 214/1/212 182/1/212
f 182/1/213 214/1/213 215/1/213 183/1/213
f 183/1/214 215/1/214 216/1/214 184/1/214
f 184/1/215 216/1/215 217/1/215 185/1/215
f 185/1/216 217/1/216 218/1/216 186/1/216
f 186/1/217 218/1/217 219/1/217 187/1/217
f 187/1/218 219/1/218 220/1/218 188/1/218
f 188/1/219 220/1/219 221/1/219 189/1/219
f 189/1/220 221/1/220 222/1/220 190/1/220
f 190/1/221 222/1/221 223/1/221 191/1/221
f 191/1/222 223/1/222 224/1/222 192/1/222
f 192/1/223 224/1/223 225/1/223 193/1/223
f 193/1/224 225/1/224 194/1/224 162/1/224
f 194/1/225 226/1/225 227/1/225 195/1/225
f 195/1/226 227/1/226 228/1/226 196/1/226
f 196/1/227 228/1/227 229/1/227 197/1/227
f 197/1/228 229/1/228 230/1/228 198/1/228
f 198/1/229 230/1/229 231/1/229 199/1/229
f 199/1/230 231/1/230 232/1/230 200/1/230
f 200/1/231 232/1/231 233/1/231 201/1/231
f 201/1/232 233/1/232 234/1/232 202/1/232
f 202/1/233 234/1/233 235/1/233 203/1/233
f 203/1/234 235/1/234 236/1/234 204/1/234
f 204/1/235 236/1/235 237/1/235 205/1/235
f 205/1/236 237/1/236 238/1/236 206/1/236
f 206/1/237 238/1/237 239/1/237 207/1/237
f 207/1/238 239/1/238 240/1/238 208/1/238
f 208/1/239 240/1/239 241/1/239 209/1/239
f 209/1/240 241/1/240 242/1/240 210/1/240
f 210/1/241 242/1/241 243/1/241 211/1/241
f 211/1/242 243/1/242 244/1/242 212/1/242
f 212/1/243 244/1/243 245/1/243 213/1/243
f 213/1/244 245/1/244 246/1/244 214/1/244
f 214/1/245 246/1/245 247/1/245 215/1/245
f 215/1/246 247/1/246 248/1/246 216/1/246
f 216/1/247 248/1/247 249/1/247 217/1/247
f 217/1/248 249/1/248 250/1/248 218/1/248
f 218/1/249 250/1/249 251/1/249 219/1/249
f 219/1/250 251/1/250 252/1/250 220/1/250
f 220/1/251 252/1/251 253/1/251 221/1/251
f 221/1/252 253/1/252 254/1/252 222/1/252
f 222/1/253 254/1/253 255/1/253 223/1/253
f 223/1/254 255/1/254 256/1/254 224/1/254
f 224/1/255 256/1/255 257/1/255 225/1/255
f 225/1/256 257/1/256 226/1/256 194/1/256
f 226/1/257 258/1/257 259/1/257 227/1/257
f 227/1/258 259/1/258 260/1/258 228/1/258
f 228/1/259 260/1/259 261/1/259 229/1/259
f 229/1/260 261/1/260 262/1/260 230/1/260
f 230/1/261 262/1/261 263/1/261 231/1/261
f 231/1/262 263/1/262 264/1/262 232/1/262
f 232/1/263 264/1/263 265/1/263 233/1/263
f 233/1/264 265/1/264 266/1/264 234/1/264
f 234/1/265 266/1/265 267/1/265 235/1/265
f 235/1/266 267/1/266 268/1/266 236/1/266
f 236/1/267 268/1/267 269/1/267 237/1/267
f 237/1/268 269/1/268 270/1/268 238/1/268
f 238/1/269 270/1/269 271/1/269 239/1/269
f 239/1/270 271/1/270 272/1/270 240/1/270
f 240/1/271 272/1/271 273/1/271 241/1/271
f 241/1/272 273/1/272 274/1/272 242/1/272
f 242/1/273 274/1/273 275/1/273 243/1/273
f 243/1/274 275/1/274 276/1/274 244/1/274
f 244/1/275 276/1/275 277/1/275 245/1/275
f 245/1/276 277/1/276 278/1/276 246/1/276
f 246/1/277 278/1/277 279/1/277 247/1/277
f 247/1/278 279/1/278 280/1/278 248/1/278
f 248/1/279 280/1/279 281/1/279 249/1/279
f 249/1/280 281/1/280 282/1/280 250/1/280
f 250/1/281 282/1/281 283/1/281 251/1/281
f 251/1/282 283/1/282 284/1/282 252/1/282
f 252/1/283 284/1/283 285/1/283 253/1/283
f 253/1/284 285/1/284 286/1/284 254/1/284
f 254/1/285 286/1/285 287/1/285 255/1/285
f 255/1/286 287/1/286 288/1/286 256/1/286
f 256/1/287 288/1/287 289/1/287 257/1/287
f 257/1/288 289/1/288 258/1/288 226/1/288
f 258/1/289 290/1/289 291/1/289 259/1/289
f 259/1/290 291/1/290 292/1/290 260/1/290
f 260/1/291 292/1/291 293/1/291 261/1/291
f 261/1/292 293/1/292 294/1/292 262/1/292
f 262/1/293 294/1/293 295/1/293 263/1/293
f 263/1/294 295/1/294 296/1/294 264/1/294
f 264/1/295 296/1/295 297/1/295 265/1/295
f 265/1/296 297/1/296 298/1/296 266/1/296
f 266/1/297 298/1/297 299/1/297 267/1/297
f 267/1/298 299/1/298 300/1/298 268/1/298
f 268/1/299 300/1/299 301/1/299 269/1/299
f 269/1/300 301/1/300 302/1/300 270/1/300
f 270/1/301 302/1/301 303/1/301 271/1/301
f 271/1/302 303/1/302 304/1/302 272/1/302
f 272/1/303 304/1/303 305/1/303 273/1/303
f 273/1/304 305/1/304 306/1/304 274/1/304
f 274/1/305 306/1/305 307/1/305 275/1/305
f 275/1/306 307/1/306 308/1/306 276/1/306
f 276/1/307 308/1/307 309/1/307 277/1/307
f 277/1/308 309/1/308 310/1/308 278/1/308
f 278/1/309 310/1/309 311/1/309 279/1/309
f 279/1/310 311/1/310 312/1/310 280/1/310
f 280/1/311 312/1/311 313/1/311 281/1/311
f 281/1/312 313/1/312 314/1/312 282/1/312
f 282/1/313 314/1/313 315/1/313 283/1/313
f 283/1/314 315/1/314 316/1/314 284/1/314
f 284/1/315 316/1/315 317/1/315 285/1/315
f 285/1/316 317/1/316 318/1/316 286/1/316
f 286/1/317 318/1/317 319/1/317 287/1/317
f 287/1/318 319/1/318 320/1/318 288/1/318
f 288/1/319 320/1/319 321/1/319 289/1/319
f 289/1/320 321/1/320 290/1/320 258/1/320
f 290/1/321 322/1/321 323/1/321 291/1/321
f 291/1/322 323/1/322 324/1/322 292/1/322
f 292/1/323 324/1/323 325/1/323 293/1/323
f 293/1/324 325/1/324 326/1/324 294/1/324
f 294/1/325 326/1/325 327/1/325 295/1/325
f 295/1/326 327/1/326 328/1/326 296/1/326
f 296/1/327 328/1/327 329/1/327 297/1/327
f 297/1/328 329/1/328 330/1/328 298/1/328
f 298/1/329 330/1/329 331/1/329 299/1/329
f 299/1/330 331/1/330 332/1/330 300/1/330
f 300/1/331 332/1/331 333/1/331 301/1/331
f 301/1/332 333/1/332 334/1/332 302/1/332
f 302/1/333 334/1/333 335/1/333 303/1/333
f 303/1/334 335/1/334 336/1/334 304/1/334
f 304/1/335 336/1/335 337/1/335 305/1/335
f 305/1/336 337/1/336 338/1/336 306/1/336
f 306/1/337 338/1/337 339/1/337 307/1/337
f 307/1/338 339/1/338 340/1/338 308/1/338
f 308/1/339 340/1/339 341/1/339 309/1/339
f 309/1/340 341/1/340 342/1/340 310/1/340
f 310/1/341 342/1/341 343/1/341 311/1/341
f 311/1/342 343/1/342 344/1/342 312/1/342
f 312/1/343 344/1/343 345/1/343 313/1/343
f 313/1/344 345/1/344 346/1/344 314/1/344
f 314/1/345 346/1/345 347/1/345 315/1/345
f 315/1/346 347/1/346 348/1/346 316/1/346
f 316/1/347 348/1/347 349/1/347 317/1/347
f 317/1/348 349/1/348 350/1/348 318/1/348
f 318/1/349 350/1/349 351/1/349 319/1/349
f 319/1/350 351/1/350 352/1/350 320/1/350
f 320/1/351 352/1/351 353/1/351 321/1/351
f 321/1/352 353/1/352 322/1/352 290/1/352
f 322/1/353 354/1/353 355/1/353 323/1/353
f 323/1/354 355/1/354 356/1/354 324/1/354
f 324/1/355 356/1/355 357/1/355 325/1/355
f 325/1/356 357/1/356 358/1/356 326/1/356
f 326/1/357 358/1/357 359/1/357 327/1/357
f 327/1/358 359/1/358 360/1/358 328/1/358
f 328/1/359 360/1/359 361/1/359 329/1/359
f 329/1/360 361/1/360 362/1/360 330/1/360
f 330/1/361 362/1/361 363/1/361 331/1/361
f 331/1/362 363/1/362 364/1/362 332/1/362
f 332/1/363 364/1/363 365/1/363 333/1/363
f 333/1/364 365/1/364 366/1/364 334/1/364
f 334/1/365 366/1/365 367/1/365 335/1/365
f 335/1/366 367/1/366 368/1/366 336/1/366
f 336/1/367 368/1/367 369/1/367 337/1/367
f 337/1/368 369/1/368 370/1/368 338/1/368
f 338/1/369 370/1/369 371/1/369 339/1/369
f 339/1/370 371/1/370 372/1/370 340/1/370
f 340/1/371 372/1/371 373/1/371 341/1/371
f 341/1/372 373/1/372 374/1/372 342/1/372
f 342/1/373 374/1/373 375/1/373 343/1/373
f 343/1/374 375/1/374 376/1/374 344/1/374
f 344/1/375 376/1/375 377/1/375 345/1/375
f 345/1/376 377/1/376 378/1/376 346/1/376
f 346/1/377 378/1/377 379/1/377 347/1/377
f 347/1/378 379/1/378 380/1/378 348/1/378
f 348/1/379 380/1/379 381/1/379 349/1/379
f 349/1/380 381/1/380 382/1/380 350/1/380
f 350/1/381 382/1/381 383/1/381 351/1/381
f 351/1/382 383/1/382 384/1/382 352/1/382
f 352/1/383 384/1/383 385/1/383 353/1/383
f 353/1/384 385/1/384 354/1/384 322/1/384
f 354/1/385 386/1/385 387/1/385 355/1/385
f 355/1/386 387/1/386 388/1/386 356/1/386
f 356/1/387 388/1/387 389/1/387 357/1/387
f 357/1/388 389/1/388 390/1/388 358/1/388
f 358/1/389 390/1/389 391/1/389 359/1/389
f 359/1/390 391/1/390 392/1/390 360/1/390
f 360/1/391 392/1/391 393/1/391 361/1/391
f 361/1/392 393/1/392 394/1/392 362/1/392
f 362/1/393 394/1/393 395/1/393 363/1/393
f 363/1/394 395/1/394 396/1/394 364/1/394
f 364/1/395 396/1/395 397/1/395 365/1/395
f 365/1/396 397/1/396 398/1/396 366/1/396
f 366/1/397 398/1/397 399/1/397 367/1/397
f 367/1/398 399/1/398 400/1/398 368/1/398
f 368/1/399 400/1/399 401/1/399 369/1/399
f 369/1/400 401/1/400 402/1/400 370/1/400
f 370/1/401 402/1/401 403/1/401 371/1/401
f 371/1/402 403/1/402 404/1/402 372/1/402
f 372/1/403 404/1/403 405/1/403 373/1/403
f 373/1/404 405/1/404 406/1/404 374/1/404
f 374/1/405 406/1/405 407/1/405 375/1/405
f 375/1/406 407/1/406 408/1/406 376/1/406
f 376/1/407 408/1/407 409/1/407 377/1/407
f 377/1/408 409/1/408 410/1/408 378/1/408
f 378/1/409 410/1/409 411/1/409 379/1/409
f 379/1/410 411/1/410 412/1/410 380/1/410
f 380/1/411 412/1/411 413/1/411 381/1/411
f 381/1/412 413/1/412 414/1/412 382/1/412
f 382/1/413 414/1/413 415/1/413 383/1/413
f 383/1/414 415/1/414 416/1/414 384/1/414
f 384/1/415 416/1/415 417/1/415 385/1/415
f 385/1/416 417/1/416 386/1/416 354/1/416
f 386/1/417 418/1/417 419/1/417 387/1/417
f 387/1/418 419/1/418 420/1/418 388/1/418
f 388/1/419 420/1/419 421/1/419 389/1/419
f 389/1/420 421/1/420 422/1/420 390/1/420
f 390/1/421 422/1/421 423/1/421 391/1/421
f 391/1/422 423/1/422 424/1/422 392/1/422
f 392/1/423 424/1/423 425/1/423 393/1/423
f 393/1/424 425/1/424 426/1/424 394/1/424
f 394/1/425 426/1/425 427/1/425 395/1/425
f 395/1/426 427/1/426 428/1/426 396/1/426
f 396/1/427 428/1/427 429/1/427 397/1/427
f 397/1/428 429/1/428 430/1/428 398/1/428
f 398/1/429 430/1/429 431/1/429 399/1/429
f 399/1/430 431/1/430 432/1/430 400/1/430
f 400/1/431 432/1/431 433/1/431 401/1/431
f 401/1/432 433/1/432 434/1/432 402/1/432
f 402/1/433 434/1/433 435/1/433 403/1/433
f 403/1/434 435/1/434 436/1/434 404/1/434
f 404/1/435 436/1/435 437/1/435 405/1/435
f 405/1/436 437/1/436 438/1/436 406/1/436
f 406/1/437 438/1/437 439/1/437 407/1/437
f 407/1/438 439/1/438 440/1/438 408/1/438
f 408/1/439 440/1/439 441/1/439 409/1/439
f 409/1/440 441/1/440 442/1/440 410/1/440
f 410/1/441 442/1/441 443/1/441 411/1/441
f 411/1/442 443/1/442 444/1/442 412/1/442
f 412/1/443 444/1/443 445/1/443 413/1/443
f 413/1/444 445/1/444 446/1/444 414/1/444
f 414/1/445 446/1/445 447/1/445 415/1/445
f 415/1/446 447/1/446 448/1/446 416/1/446
f 416/1/447 448/1/447 449/1/447 417/1/447
f 417/1/448 449/1/448 418/1/448 386/1/448
f 418/1/449 450/1/449 451/1/449 419/1/449
f 419/1/450 451/1/450 452/1/450 420/1/450
f 420/1/451 452/1/451 453/1/451 421/1/451
f 421/1/452 453/1/452 454/1/452 422/1/452
f 422/1/453 454/1/453 455/1/453 423/1/453
f 423/1/454 455/1/454 456/1/454 424/1/454
f 424/1/455 456/1/455 457/1/455 425/1/455
f 425/1/456 457/1/456 458/1/456 426/1/456
f 426/1/457 458/1/457 459/1/457 427/1/457
f 427/1/458 459/1/458 460/1/458 428/1/458
f 428/1/459 460/1/459 461/1/459 429/1/459
f 429/1/460 461/1/460 462/1/460 430/1/460
f 430/1/461 462/1/461 463/1/461 431/1/461
f 431/1/462 463/1/462 464/1/462 432/1/462
f 432/1/463 464/1/463 465/1/463 433/1/463
f 433/1/464 465/1/464 466/1/464 434/1/464
f 434/1/465 466/1/465 467/1/465 435/1/465
f 435/1/466 467/1/466 468/1/466 436/1/466
f 436/1/467 468/1/467 469/1/467 437/1/467
f 437/1/468 469/1/468 470/1/468 438/1/468
f 438/1/469 470/1/469 471/1/469 439/1/469
f 439/1/470 471/1/470 472/1/470 440/1/470
f 440/1/471 472/1/471 473/1/471 441/1/471
f 441/1/472 473/1/472 474/1/472 442/1/472
f 442/1/473 474/1/473 475/1/473 443/1/473
f 443/1/474 475/1/474 476/1/474 444/1/474
f 444/1/475 476/1/475 477/1/475 445/1/475
f 445/1/476 477/1/476 478/1/476 446/1/476
f 446/1/477 478/1/477 479/1/477 447/1/477
f 447/1/478 479/1/478 480/1/478 448/1/478
f 448/1/479 480/1/479 481/1/479 449/1/479
f 449/1/480 481/1/480 450/1/480 418/1/480
f 482/1/481 451/1/481 450/1/481
f 482/1/482 452/1/482 451/1/482
f 482/1/483 453/1/483 452/1/483
f 482/1/484 454/1/484 453/1/484
f 482/1/485 455/1/485 454/1/485
f 482/1/486 456/1/486 455/1/486
f 482/1/487 457/1/487 456/1/487
f 482/1/488 458/1/488 457/1/488
f 482/1/489 459/1/489 458/1/489
f 482/1/490 460/1/490 459/1/490
f 482/1/491 461/1/491 460/1/491
f 482/1/492 462/1/492 461/1/492
f 482/1/493 463/1/493 462/1/493
f 482/1/494 464/1/494 463/1/494
f 482/1/495 465/1/495 464/1/495
f 482/1/496 466/1/496 465/1/496
f 482/1/497 467/1/497 466/1/497
f 482/1/498 468/1/498 467/1/498
f 482/1/499 469/1/499 468/1/499
f 482/1/500 470/1/500 469/1/500
f 482/1/501 471/1/501 470/1/501
f 482/1/502 472/1/502 471/1/502
f 482/1/503 473/1/503 472/1/503
f 482/1/504 474/1/504 473/1/504
f 482/1/505 475/1/505 474/1/505
f 482/1/506 476/1/506 475/1/506
f 482/1/507 477/1/507 476/1/507
f 482/1/508 478/1/508 477/1/508
f 482/1/509 479/1/509 478/1/509
f 482/1/510 480/1/510 479/1/510
f 482/1/511 481/1/511 480/1/511
f 482/1/512 450/1/512 481/1/512
