# Blender 3.6.9
# www.blender.org
o scale
v -0.000000 0.000000 -0.020854
v -0.014746 0.000000 -0.014746
v -0.020854 0.000000 -0.000000
v -0.014746 0.000000 0.014746
v -0.000000 0.000000 0.020854
v 0.014746 0.000000 0.014746
v 0.020854 0.000000 -0.000000
v 0.014746 0.000000 -0.014746
v -0.000000 0.864704 -0.021085
v -0.014746 0.864704 -0.014977
v -0.020854 0.864704 -0.000231
v -0.014746 0.864704 0.014515
v -0.000000 0.864704 0.020623
v 0.014746 0.864704 0.014515
v 0.020854 0.864704 -0.000231
v 0.014746 0.864704 -0.014977
v 0.024854 0.990880 -0.024854
v 0.043049 0.965149 -0.043049
v 0.049709 0.930000 -0.049709
v 0.043049 0.894851 -0.043049
v 0.035149 0.990880 0.000000
v 0.060880 0.965149 0.000000
v 0.070299 0.930000 0.000000
v 0.060880 0.894851 0.000000
v 0.024854 0.990880 0.024854
v 0.043049 0.965149 0.043049
v 0.049709 0.930000 0.049709
v 0.043049 0.894851 0.043049
v -0.000000 0.990880 0.035149
v -0.000000 0.965149 0.060880
v -0.000000 0.930000 0.070299
v -0.000000 0.894851 0.060880
v -0.000000 1.000299 0.000000
v -0.024854 0.990880 0.024854
v -0.043049 0.965149 0.043049
v -0.049709 0.930000 0.049709
v -0.043049 0.894851 0.043049
v -0.035149 0.990880 0.000000
v -0.060880 0.965149 0.000000
v -0.070299 0.930000 0.000000
v -0.060880 0.894851 0.000000
v -0.024854 0.990880 -0.024854
v -0.043049 0.965149 -0.043049
v -0.049709 0.930000 -0.049709
v -0.043049 0.894851 -0.043049
v -0.000000 0.990880 -0.035149
v -0.000000 0.965149 -0.060880
v -0.000000 0.930000 -0.070299
v -0.000000 0.894851 -0.060880
v 0.024854 0.869120 -0.024854
v 0.035149 0.869120 0.000000
v 0.024854 0.869120 0.024854
v -0.000000 0.869120 0.035149
v -0.024854 0.869120 0.024854
v -0.035149 0.869120 0.000000
v -0.024854 0.869120 -0.024854
v -0.000000 0.869120 -0.035149
vn -0.7071 0.0002 0.7071
vn -1.0000 -0.0000 0.0001
vn -0.7071 -0.0002 -0.7071
vn -0.0000 -0.0003 -1.0000
vn 1.0000 -0.0000 -0.0001
vn 0.7071 -0.0002 -0.7071
vn -0.0000 0.0003 1.0000
vn 0.7071 0.0002 0.7071
vn -1.0000 -0.0000 -0.0001
vn 1.0000 -0.0000 0.0001
vn -0.0000 -0.0000 -1.0000
vn 0.6225 0.4744 -0.6225
vn 0.7071 -0.0000 -0.7071
vn -0.0000 0.8383 -0.5452
vn -0.0000 1.0000 -0.0000
vn 0.3855 0.8383 -0.3855
vn 0.6225 -0.4744 -0.6225
vn -0.0000 -0.4744 -0.8803
vn -0.0000 0.4744 -0.8803
vn 0.3951 -0.8295 -0.3947
vn -0.0000 -0.8292 -0.5589
vn 1.0000 -0.0000 -0.0000
vn 0.8803 -0.4744 -0.0000
vn 0.8803 0.4744 -0.0000
vn 0.5574 -0.8302 0.0003
vn 0.5452 0.8383 -0.0000
vn 0.6225 -0.4744 0.6225
vn 0.6225 0.4744 0.6225
vn 0.3932 -0.8309 0.3936
vn 0.7071 -0.0000 0.7071
vn 0.3855 0.8383 0.3855
vn -0.0000 -0.4744 0.8803
vn -0.0000 0.4744 0.8803
vn -0.0000 -0.8312 0.5560
vn -0.0000 -0.0000 1.0000
vn -0.0000 0.8383 0.5452
vn -0.6225 0.4744 0.6225
vn -0.3932 -0.8309 0.3936
vn -0.7071 -0.0000 0.7071
vn -0.3855 0.8383 0.3855
vn -0.6225 -0.4744 0.6225
vn -0.5574 -0.8302 0.0003
vn -1.0000 -0.0000 -0.0000
vn -0.5452 0.8383 -0.0000
vn -0.8803 -0.4744 -0.0000
vn -0.8803 0.4744 -0.0000
vn -0.3951 -0.8295 -0.3947
vn -0.7071 -0.0000 -0.7071
vn -0.3855 0.8383 -0.3855
vn -0.6225 -0.4744 -0.6225
vn -0.6225 0.4744 -0.6225
vn 0.2951 -0.9555 -0.0017
vn 0.2073 -0.9564 0.2057
vn -0.0000 -0.9568 0.2908
vn -0.2073 -0.9564 0.2057
vn -0.2951 -0.9555 -0.0017
vn -0.2100 -0.9545 -0.2117
vn -0.0000 -0.9541 -0.2995
vn 0.2100 -0.9545 -0.2117
vt 0.000000 0.000000
vt 0.750000 0.500000
vt 0.625000 0.666667
vt 0.625000 0.500000
vt 0.750000 0.833333
vt 0.687500 1.000000
vt 0.625000 0.833333
vt 0.625000 0.333333
vt 0.750000 0.333333
vt 0.750000 0.666667
vt 0.625000 0.166667
vt 0.750000 0.166667
vt 0.500000 0.500000
vt 0.500000 0.333333
vt 0.500000 0.666667
vt 0.500000 0.166667
vt 0.562500 1.000000
vt 0.500000 0.833333
vt 0.375000 0.333333
vt 0.375000 0.666667
vt 0.375000 0.166667
vt 0.375000 0.500000
vt 0.437500 1.000000
vt 0.375000 0.833333
vt 0.250000 0.333333
vt 0.250000 0.666667
vt 0.250000 0.166667
vt 0.250000 0.500000
vt 0.312500 1.000000
vt 0.250000 0.833333
vt 0.125000 0.666667
vt 0.125000 0.166667
vt 0.125000 0.500000
vt 0.187500 1.000000
vt 0.125000 0.833333
vt 0.125000 0.333333
vt 0.000000 0.166667
vt 0.000000 0.500000
vt 0.062500 1.000000
vt 0.000000 0.833333
vt 0.000000 0.333333
vt 0.000000 0.666667
vt 1.000000 0.333333
vt 0.875000 0.166667
vt 1.000000 0.166667
vt 1.000000 0.666667
vt 0.875000 0.500000
vt 1.000000 0.500000
vt 1.000000 0.833333
vt 0.937500 1.000000
vt 0.875000 0.833333
vt 0.875000 0.333333
vt 0.875000 0.666667
vt 0.812500 1.000000
vt 0.474991 0.099089
vt 0.349991 0.099089
vt 0.224991 0.099089
vt 0.099991 0.099089
vt 0.025009 0.099089
vt 0.974991 0.099089
vt 0.849991 0.099089
vt 0.724991 0.099089
vt 0.650009 0.099089
s 1
f 8/1/1 15/1/2 16/1/1
f 6/1/3 13/1/4 14/1/3
f 3/1/5 12/1/6 4/1/6
f 1/1/7 10/1/8 2/1/8
f 1/1/7 16/1/1 9/1/7
f 7/1/9 14/1/3 15/1/2
f 4/1/6 13/1/4 5/1/4
f 2/1/8 11/1/10 3/1/5
f 48/2/11 18/3/12 19/4/13
f 46/5/14 33/6/15 17/7/16
f 48/2/11 20/8/17 49/9/18
f 47/10/19 17/7/16 18/3/12
f 49/9/18 50/11/20 57/12/21
f 20/8/17 23/13/22 24/14/23
f 17/7/16 22/15/24 18/3/12
f 50/11/20 24/14/23 51/16/25
f 18/3/12 23/13/22 19/4/13
f 17/7/16 33/17/15 21/18/26
f 23/13/22 28/19/27 24/14/23
f 21/18/26 26/20/28 22/15/24
f 24/14/23 52/21/29 51/16/25
f 22/15/24 27/22/30 23/13/22
f 21/18/26 33/23/15 25/24/31
f 27/22/30 32/25/32 28/19/27
f 25/24/31 30/26/33 26/20/28
f 28/19/27 53/27/34 52/21/29
f 26/20/28 31/28/35 27/22/30
f 25/24/31 33/29/15 29/30/36
f 29/30/36 35/31/37 30/26/33
f 32/25/32 54/32/38 53/27/34
f 30/26/33 36/33/39 31/28/35
f 29/30/36 33/34/15 34/35/40
f 31/28/35 37/36/41 32/25/32
f 37/36/41 55/37/42 54/32/38
f 35/31/37 40/38/43 36/33/39
f 34/35/40 33/39/15 38/40/44
f 36/33/39 41/41/45 37/36/41
f 34/35/40 39/42/46 35/31/37
f 41/43/45 56/44/47 55/45/42
f 39/46/46 44/47/48 40/48/43
f 38/49/44 33/50/15 42/51/49
f 40/48/43 45/52/50 41/43/45
f 38/49/44 43/53/51 39/46/46
f 45/52/50 57/12/21 56/44/47
f 43/53/51 48/2/11 44/47/48
f 42/51/49 33/54/15 46/5/14
f 44/47/48 49/9/18 45/52/50
f 42/51/49 47/10/19 43/53/51
f 15/55/52 50/11/20 51/16/25
f 14/56/53 51/16/25 52/21/29
f 13/57/54 52/21/29 53/27/34
f 13/57/54 54/32/38 12/58/55
f 12/58/55 55/37/42 11/59/56
f 11/60/56 56/44/47 10/61/57
f 10/61/57 57/12/21 9/62/58
f 16/63/59 57/12/21 50/11/20
f 8/1/1 7/1/9 15/1/2
f 6/1/3 5/1/4 13/1/4
f 3/1/5 11/1/10 12/1/6
f 1/1/7 9/1/7 10/1/8
f 1/1/7 8/1/1 16/1/1
f 7/1/9 6/1/3 14/1/3
f 4/1/6 12/1/6 13/1/4
f 2/1/8 10/1/8 11/1/10
f 48/2/11 47/10/19 18/3/12
f 48/2/11 19/4/13 20/8/17
f 47/10/19 46/5/14 17/7/16
f 49/9/18 20/8/17 50/11/20
f 20/8/17 19/4/13 23/13/22
f 17/7/16 21/18/26 22/15/24
f 50/11/20 20/8/17 24/14/23
f 18/3/12 22/15/24 23/13/22
f 23/13/22 27/22/30 28/19/27
f 21/18/26 25/24/31 26/20/28
f 24/14/23 28/19/27 52/21/29
f 22/15/24 26/20/28 27/22/30
f 27/22/30 31/28/35 32/25/32
f 25/24/31 29/30/36 30/26/33
f 28/19/27 32/25/32 53/27/34
f 26/20/28 30/26/33 31/28/35
f 29/30/36 34/35/40 35/31/37
f 32/25/32 37/36/41 54/32/38
f 30/26/33 35/31/37 36/33/39
f 31/28/35 36/33/39 37/36/41
f 37/36/41 41/41/45 55/37/42
f 35/31/37 39/42/46 40/38/43
f 36/33/39 40/38/43 41/41/45
f 34/35/40 38/40/44 39/42/46
f 41/43/45 45/52/50 56/44/47
f 39/46/46 43/53/51 44/47/48
f 40/48/43 44/47/48 45/52/50
f 38/49/44 42/51/49 43/53/51
f 45/52/50 49/9/18 57/12/21
f 43/53/51 47/10/19 48/2/11
f 44/47/48 48/2/11 49/9/18
f 42/51/49 46/5/14 47/10/19
f 15/55/52 16/63/59 50/11/20
f 14/56/53 15/55/52 51/16/25
f 13/57/54 14/56/53 52/21/29
f 13/57/54 53/27/34 54/32/38
f 12/58/55 54/32/38 55/37/42
f 11/60/56 55/45/42 56/44/47
f 10/61/57 56/44/47 57/12/21
f 16/63/59 9/62/58 57/12/21
