# Blender 3.6.9
# www.blender.org
o translate
v -0.000000 0.000000 -0.020854
v -0.014746 0.000000 -0.014746
v -0.020854 0.000000 -0.000000
v -0.014746 0.000000 0.014746
v -0.000000 0.000000 0.020854
v 0.014746 0.000000 0.014746
v 0.020854 0.000000 -0.000000
v 0.014746 0.000000 -0.014746
v -0.000000 0.860000 -0.020854
v -0.014746 0.860000 -0.014746
v -0.020854 0.860000 -0.000000
v -0.014746 0.860000 0.014746
v -0.000000 0.860000 0.020854
v 0.014746 0.860000 0.014746
v 0.020854 0.860000 -0.000000
v 0.014746 0.860000 -0.014746
v 0.000000 0.860000 -0.059966
v -0.042402 0.860000 -0.042402
v -0.059966 0.860000 0.000000
v -0.042402 0.860000 0.042402
v 0.000000 0.860000 0.059966
v 0.042402 0.860000 0.042402
v 0.059966 0.860000 0.000000
v 0.042402 0.860000 -0.042402
v 0.000000 1.000000 0.000000
vn -0.7071 -0.0000 0.7071
vn -1.0000 -0.0000 -0.0000
vn -0.7071 -0.0000 -0.7071
vn -0.0000 -0.0000 -1.0000
vn 0.7071 -0.0000 -0.7071
vn 1.0000 -0.0000 -0.0000
vn 0.7071 -0.0000 0.7071
vn -0.0000 -0.0000 1.0000
vn -0.0000 1.0000 -0.0000
vn -0.6500 -0.3937 -0.6500
vn -0.0000 -0.3937 -0.9192
vn -0.0000 -1.0000 -0.0000
vn 0.6500 -0.3937 -0.6500
vn 0.9192 -0.3937 -0.0000
vn 0.6500 -0.3937 0.6500
vn -0.0000 -0.3937 0.9192
vn -0.6500 -0.3937 0.6500
vn -0.9192 -0.3937 -0.0000
vt 0.000000 0.000000
s 1
f 8/1/1 7/1/2 15/1/2 16/1/1
f 6/1/3 5/1/4 13/1/4 14/1/3
f 4/1/5 3/1/6 11/1/6 12/1/5
f 2/1/7 1/1/8 9/1/8 10/1/7
f 1/1/8 8/1/1 16/1/1 9/1/8
f 7/1/2 6/1/3 14/1/3 15/1/2
f 5/1/4 4/1/5 12/1/5 13/1/4
f 3/1/6 2/1/7 10/1/7 11/1/6
f 9/1/9 16/1/9 24/1/9 17/1/9
f 15/1/9 14/1/9 22/1/9 23/1/9
f 13/1/9 12/1/9 20/1/9 21/1/9
f 11/1/9 10/1/9 18/1/9 19/1/9
f 16/1/9 15/1/9 23/1/9 24/1/9
f 14/1/9 13/1/9 21/1/9 22/1/9
f 12/1/9 11/1/9 19/1/9 20/1/9
f 10/1/9 9/1/9 17/1/9 18/1/9
f 22/1/10 21/1/11 25/1/12
f 20/1/13 19/1/14 25/1/12
f 18/1/15 17/1/16 25/1/12
f 17/1/16 24/1/17 25/1/12
f 23/1/18 22/1/10 25/1/12
f 21/1/11 20/1/13 25/1/12
f 19/1/14 18/1/15 25/1/12
f 24/1/17 23/1/18 25/1/12
