{
	"asset":{
		"generator":"Khronos glTF Blender I/O v3.6.28",
		"version":"2.0"
	},
	"scene":0,
	"scenes":[
		{
			"name":"Normalized.001",
			"nodes":[
				0
			]
		}
	],
	"nodes":[
		{
			"mesh":0,
			"name":"Cube.023",
			"translation":[
				19.89242172241211,
				17.097152709960938,
				-0.01889629103243351
			]
		}
	],
	"materials":[
		{
			"doubleSided":true,
			"name":"Green Tile",
			"normalTexture":{
				"index":0
			},
			"pbrMetallicRoughness":{
				"baseColorTexture":{
					"index":1
				},
				"metallicRoughnessTexture":{
					"index":2
				}
			}
		}
	],
	"meshes":[
		{
			"name":"Cube.023",
			"primitives":[
				{
					"attributes":{
						"POSITION":0,
						"NORMAL":1,
						"TEXCOORD_0":2
					},
					"indices":3,
					"material":0
				}
			]
		}
	],
	"textures":[
		{
			"sampler":0,
			"source":0
		},
		{
			"sampler":0,
			"source":1
		},
		{
			"sampler":0,
			"source":2
		}
	],
	"images":[
		{
			"bufferView":4,
			"mimeType":"image/jpeg",
			"name":"green-shower-tile1_normal-ogl"
		},
		{
			"bufferView":5,
			"mimeType":"image/jpeg",
			"name":"green-shower-tile1_albedo"
		},
		{
			"bufferView":6,
			"mimeType":"image/jpeg",
			"name":"green-shower-tile1_metallic.jpg-green-shower-tile1_roughness.jpg"
		}
	],
	"accessors":[
		{
			"bufferView":0,
			"componentType":5126,
			"count":504,
			"max":[
				1,
				1,
				21.475255966186523
			],
			"min":[
				-41.806819915771484,
				-32.766292572021484,
				-21.28959083557129
			],
			"type":"VEC3"
		},
		{
			"bufferView":1,
			"componentType":5126,
			"count":504,
			"type":"VEC3"
		},
		{
			"bufferView":2,
			"componentType":5126,
			"count":504,
			"type":"VEC2"
		},
		{
			"bufferView":3,
			"componentType":5123,
			"count":756,
			"type":"SCALAR"
		}
	],
	"bufferViews":[
		{
			"buffer":0,
			"byteLength":6048,
			"byteOffset":0,
			"target":34962
		},
		{
			"buffer":0,
			"byteLength":6048,
			"byteOffset":6048,
			"target":34962
		},
		{
			"buffer":0,
			"byteLength":4032,
			"byteOffset":12096,
			"target":34962
		},
		{
			"buffer":0,
			"byteLength":1512,
			"byteOffset":16128,
			"target":34963
		},
		{
			"buffer":0,
			"byteLength":332510,
			"byteOffset":17640
		},
		{
			"buffer":0,
			"byteLength":280891,
			"byteOffset":350152
		},
		{
			"buffer":0,
			"byteLength":25475,
			"byteOffset":631044
		}
	],
	"samplers":[
		{
			"magFilter":9729,
			"minFilter":9987
		}
	],
	"buffers":[
		{
			"byteLength":656520,
			"uri":"data:application/octet-stream;base64,"
		}
	]
}
