{
	"asset":{
		"generator":"Khronos glTF Blender I/O v3.6.28",
		"version":"2.0"
	},
	"extensionsUsed":[
		"KHR_materials_specular"
	],
	"scene":0,
	"scenes":[
		{
			"name":"Scene.001",
			"nodes":[
				0
			]
		}
	],
	"nodes":[
		{
			"mesh":0,
			"name":"Circle",
			"scale":[
				5.267649173736572,
				5.267649173736572,
				5.267649173736572
			]
		}
	],
	"materials":[
		{
			"doubleSided":true,
			"extensions":{
				"KHR_materials_specular":{
					"specularColorTexture":{
						"index":0,
						"texCoord":1
					},
					"specularColorFactor":[
						1.5137256383895872,
						1.5137256383895872,
						1.5137256383895872
					]
				}
			},
			"name":"Scratched liht blue metal",
			"normalTexture":{
				"index":1,
				"texCoord":1
			},
			"pbrMetallicRoughness":{
				"baseColorTexture":{
					"index":2,
					"texCoord":1
				},
				"metallicRoughnessTexture":{
					"index":3,
					"texCoord":1
				}
			}
		}
	],
	"meshes":[
		{
			"name":"Circle.001",
			"primitives":[
				{
					"attributes":{
						"POSITION":0,
						"NORMAL":1,
						"TEXCOORD_0":2,
						"TEXCOORD_1":3
					},
					"indices":4,
					"material":0
				}
			]
		}
	],
	"textures":[
		{
			"sampler":0,
			"source":0
		},
		{
			"sampler":0,
			"source":1
		},
		{
			"sampler":0,
			"source":2
		},
		{
			"sampler":0,
			"source":3
		}
	],
	"images":[
		{
			"bufferView":5,
			"mimeType":"image/jpeg",
			"name":"Image"
		},
		{
			"bufferView":6,
			"mimeType":"image/jpeg",
			"name":"meetal02_normal_opengl"
		},
		{
			"bufferView":7,
			"mimeType":"image/jpeg",
			"name":"meetal04_basecolor"
		},
		{
			"bufferView":8,
			"mimeType":"image/jpeg",
			"name":"meetal02_metallic_512-meetal02_glossiness_512"
		}
	],
	"accessors":[
		{
			"bufferView":0,
			"componentType":5126,
			"count":1535,
			"max":[
				0.9553418755531311,
				0.26315414905548096,
				0.9553418755531311
			],
			"min":[
				-0.9553418755531311,
				0,
				-0.9553418755531311
			],
			"type":"VEC3"
		},
		{
			"bufferView":1,
			"componentType":5126,
			"count":1535,
			"type":"VEC3"
		},
		{
			"bufferView":2,
			"componentType":5126,
			"count":1535,
			"type":"VEC2"
		},
		{
			"bufferView":3,
			"componentType":5126,
			"count":1535,
			"type":"VEC2"
		},
		{
			"bufferView":4,
			"componentType":5123,
			"count":6048,
			"type":"SCALAR"
		}
	],
	"bufferViews":[
		{
			"buffer":0,
			"byteLength":18420,
			"byteOffset":0,
			"target":34962
		},
		{
			"buffer":0,
			"byteLength":18420,
			"byteOffset":18420,
			"target":34962
		},
		{
			"buffer":0,
			"byteLength":12280,
			"byteOffset":36840,
			"target":34962
		},
		{
			"buffer":0,
			"byteLength":12280,
			"byteOffset":49120,
			"target":34962
		},
		{
			"buffer":0,
			"byteLength":12096,
			"byteOffset":61400,
			"target":34963
		},
		{
			"buffer":0,
			"byteLength":25298,
			"byteOffset":73496
		},
		{
			"buffer":0,
			"byteLength":4980,
			"byteOffset":98796
		},
		{
			"buffer":0,
			"byteLength":29480,
			"byteOffset":103776
		},
		{
			"buffer":0,
			"byteLength":5929,
			"byteOffset":133256
		}
	],
	"samplers":[
		{
			"magFilter":9729,
			"minFilter":9987
		}
	],
	"buffers":[
		{
			"byteLength":139188,
			"uri":"data:application/octet-stream;base64,"
		}
	]
}
